<svg id="Capa_1" data-name="Capa 1" xmlns="http://www.w3.org/2000/svg" viewBox="0 0 180 180"><defs><style>.cls-1,.cls-2{fill:#fff;}.cls-1,.cls-2,.cls-3,.cls-4{stroke:#72408d;}.cls-1,.cls-4{stroke-miterlimit:10;}.cls-1,.cls-2,.cls-3{stroke-width:0.5px;}.cls-2,.cls-3{stroke-linecap:round;stroke-linejoin:round;}.cls-3,.cls-4{fill:none;}</style></defs><g id="_2" data-name="2"><path class="cls-1" d="M83.52,10.67h0l.88-.51h0a.49.49,0,0,1,.49.05l22.61,13a1.88,1.88,0,0,1,.79,1.51l0,19.84a.72.72,0,0,1-.26.63h0l-.82.47-.21.09"/><line class="cls-1" x1="105.12" y1="44.64" x2="106.41" y2="45.43"/><polyline class="cls-1" points="106.98 45.78 106.97 45.78 106.41 45.43"/><path class="cls-1" d="M105.12,44.64,84.92,32.27a1.91,1.91,0,0,1-.8-1.52V11.51l-.59-.84"/><path class="cls-1" d="M83.62,32.26a1.35,1.35,0,0,0,.47.48l22.42,12.92"/><path class="cls-1" d="M107,45.78a.28.28,0,0,1-.28,0l-.19-.1"/><path class="cls-1" d="M83.52,10.67a.5.5,0,0,1,.55,0l22.61,13a1.9,1.9,0,0,1,.79,1.52l0,19.35a1.49,1.49,0,0,1-.51,1.2"/><path class="cls-1" d="M83.52,10.67a.73.73,0,0,0-.24.62V31.23a1.93,1.93,0,0,0,.33,1"/><path class="cls-1" d="M106.49,43.44V25.24a.84.84,0,0,0-.35-.67L84.6,12.17c-.19-.11-.35,0-.35.27l0,18.2a.81.81,0,0,0,.35.66l21.52,12.4C106.34,43.82,106.49,43.7,106.49,43.44Z"/><path class="cls-1" d="M95.12,17.67a.47.47,0,0,0,.2.38l.09.06c.11.06.2,0,.2-.16a.5.5,0,0,0-.2-.39l-.09,0C95.21,17.45,95.12,17.52,95.12,17.67Z"/><path class="cls-1" d="M65.31,42.26h0v.85h0a.5.5,0,0,0,.29.45l22.61,13a1.89,1.89,0,0,0,1.71-.07l16.18-9.37a.69.69,0,0,0,.42-.55h0V45.7h0"/><path class="cls-1" d="M65.31,42.26l.83.07,15.77-9.12a1.89,1.89,0,0,1,1.71-.07l21.62,12.45,1.28.11"/><path class="cls-1" d="M106.52,45.7a.06.06,0,0,0,0,0"/><line class="cls-1" x1="105.12" y1="44.64" x2="83.62" y2="32.26"/><path class="cls-1" d="M105.12,44.64l1.11.64.18.15"/><path class="cls-1" d="M83.62,32.26h0a1.92,1.92,0,0,0-1.71.07L65.72,41.7a.69.69,0,0,0-.41.56"/><path class="cls-1" d="M65.31,42.26a.52.52,0,0,0,.29.42l22.61,13a1.89,1.89,0,0,0,1.71-.08l16.18-9.36a.71.71,0,0,0,.42-.57"/><path class="cls-1" d="M106.41,45.43a.43.43,0,0,1,.1.23"/><path class="cls-1" d="M82.67,33.13a.72.72,0,0,1,.37.08l21.52,12.4"/><path class="cls-1" d="M73.19,38.92a.27.27,0,0,1-.11-.1"/><path class="cls-1" d="M104.67,45.7a.2.2,0,0,1,0,.23"/><line class="cls-1" x1="73.3" y1="38.98" x2="73.19" y2="38.92"/><path class="cls-1" d="M104.67,45.7a.25.25,0,0,0-.11-.09"/><path class="cls-1" d="M73.06,38.71a.14.14,0,0,0,0,.11"/><path class="cls-1" d="M82.29,33.24l-9.05,5.25a.38.38,0,0,0-.17.16"/><path class="cls-1" d="M104.51,46l-9,5.25a.85.85,0,0,1-.76,0L73.3,39"/><path class="cls-1" d="M73.06,38.71s0,0,0-.06"/><path class="cls-1" d="M80.08,43.9l6,3.44,0,0"/><path class="cls-1" d="M86,47.57c.1-.06.12-.14.06-.21"/><path class="cls-1" d="M80.81,50.4h0l-6-3.44"/><path class="cls-1" d="M79.67,43.92l-4.82,2.8a.19.19,0,0,0-.1.12"/><path class="cls-1" d="M82.24,49.76l-1,.61a.5.5,0,0,1-.38,0"/><line class="cls-1" x1="82.24" y1="49.76" x2="85.87" y2="47.65"/><line class="cls-1" x1="86.01" y1="47.57" x2="85.87" y2="47.65"/><path class="cls-1" d="M82.67,33.13a.72.72,0,0,1,.37.08l21.52,12.4"/><path class="cls-1" d="M104.67,45.7a.25.25,0,0,0-.11-.09"/><path class="cls-1" d="M82.29,33.24l-9.05,5.25a.38.38,0,0,0-.17.16"/><polyline class="cls-1" points="73.3 38.98 73.3 38.98 73.19 38.92"/><path class="cls-1" d="M73.19,38.92a.27.27,0,0,1-.11-.1"/><path class="cls-1" d="M104.51,46l-.05,0L83,33.74a.83.83,0,0,0-.75,0L73.3,39"/><path class="cls-1" d="M73.06,38.71a.14.14,0,0,0,0,.11"/><path class="cls-1" d="M104.67,45.7a.2.2,0,0,1,0,.23"/><path class="cls-1" d="M73.06,38.71s0,0,0-.06"/><path class="cls-1" d="M82.29,33.24a.84.84,0,0,1,.38-.11"/><path class="cls-1" d="M104.64,45.93a.36.36,0,0,1-.13.11"/><path class="cls-1" d="M80.08,43.9l6,3.44,0,0"/><path class="cls-1" d="M79.67,43.92l-4.82,2.8a.19.19,0,0,0-.1.12"/><path class="cls-1" d="M85.87,47.65l-5.79-3.33a.46.46,0,0,0-.41,0l-3.38,2"/><line class="cls-1" x1="75.01" y1="47.04" x2="76.29" y2="46.3"/><polyline class="cls-1" points="75.01 47.04 74.99 47.05 74.82 46.95"/><polyline class="cls-1" points="86.01 47.57 85.87 47.65 85.87 47.65"/><path class="cls-1" d="M86,47.57c.1-.06.12-.14.06-.21"/><path class="cls-1" d="M79.67,43.92a.49.49,0,0,1,.41,0"/><path class="cls-1" d="M74.82,47a.13.13,0,0,1-.07-.11"/><path class="cls-1" d="M80.81,50.4h0L75.09,47.1,75,47"/><path class="cls-1" d="M76.29,46.3a.24.24,0,0,0-.13,0L75,47s0,0,.05.07"/><path class="cls-1" d="M82.24,49.76s-.06-.07-.13-.12l-5.72-3.29-.1-.05"/><path class="cls-1" d="M82.24,49.76s0,0,0,0L81,50.47a.49.49,0,0,1-.23-.07"/><path class="cls-2" d="M81.64,34.71a.15.15,0,0,0,0,.26l.6.35a.71.71,0,0,0,.6,0l.24-.14c.16-.09.19-.23.07-.32"/><path class="cls-2" d="M83.2,34.83s0,0,0,0l-.6-.35a.62.62,0,0,0-.59,0l-.25.14a.24.24,0,0,0-.09.08"/><path class="cls-2" d="M84.71,35.7l0,0-.61-.34a.65.65,0,0,0-.59,0l-.24.14-.1.08"/><path class="cls-2" d="M83.14,35.57a.17.17,0,0,0,0,.27l.61.34a.65.65,0,0,0,.59,0l.25-.14c.16-.1.18-.23.07-.32"/><path class="cls-2" d="M86.21,36.57s0,0,0,0l-.6-.35a.68.68,0,0,0-.59,0l-.25.14a.24.24,0,0,0-.09.08"/><path class="cls-2" d="M84.65,36.44a.15.15,0,0,0,0,.26l.6.35a.67.67,0,0,0,.6,0l.24-.15c.16-.09.19-.22.07-.31"/><path class="cls-2" d="M87.72,37.43l0,0-.6-.35a.64.64,0,0,0-.6,0l-.24.14a.39.39,0,0,0-.1.08"/><path class="cls-2" d="M86.15,37.31c-.08.09-.06.19.06.26l.6.35a.65.65,0,0,0,.59,0l.25-.14c.16-.09.18-.23.07-.32"/><path class="cls-2" d="M87.66,38.17a.16.16,0,0,0,0,.27l.61.35a.68.68,0,0,0,.59,0l.24-.14c.16-.1.19-.23.07-.32"/><path class="cls-2" d="M89.22,38.3s0,0,0,0l-.6-.35A.65.65,0,0,0,88,38l-.25.14-.09.08"/><path class="cls-2" d="M90.73,39.17l0,0-.6-.35a.71.71,0,0,0-.6,0l-.24.14-.1.08"/><path class="cls-2" d="M89.16,39a.16.16,0,0,0,.06.26l.6.35a.65.65,0,0,0,.59,0l.25-.14c.16-.1.18-.23.07-.32"/><path class="cls-2" d="M90.67,39.91a.15.15,0,0,0,0,.26l.61.35a.62.62,0,0,0,.59,0l.24-.14c.16-.09.19-.23.07-.32"/><path class="cls-2" d="M92.23,40s0,0,0,0l-.61-.35a.65.65,0,0,0-.59,0l-.25.14a.24.24,0,0,0-.09.08"/><path class="cls-2" d="M93.74,40.9l0,0-.6-.35a.67.67,0,0,0-.6,0l-.24.15-.1.07"/><path class="cls-2" d="M92.17,40.77a.17.17,0,0,0,.06.27l.6.35a.68.68,0,0,0,.59,0l.25-.14c.16-.09.18-.23.07-.32"/><path class="cls-2" d="M93.68,41.64a.15.15,0,0,0,0,.26l.61.35a.65.65,0,0,0,.59,0l.24-.14c.17-.1.19-.23.07-.32"/><path class="cls-2" d="M95.24,41.77l0,0-.61-.34a.65.65,0,0,0-.59,0l-.25.14a.36.36,0,0,0-.09.08"/><path class="cls-2" d="M96.75,42.63l0,0-.6-.35a.71.71,0,0,0-.6,0l-.24.14a.39.39,0,0,0-.1.08"/><path class="cls-2" d="M95.18,42.51a.16.16,0,0,0,.06.26l.6.35a.62.62,0,0,0,.59,0l.25-.14c.16-.09.18-.23.07-.32"/><path class="cls-2" d="M98.3,43.53l0,0-.6-.34a.65.65,0,0,0-.59,0l-.25.14a.36.36,0,0,0-.09.08"/><path class="cls-2" d="M96.74,43.4a.16.16,0,0,0,.05.27l.6.34A.65.65,0,0,0,98,44l.25-.14c.16-.1.18-.23.07-.32"/><path class="cls-2" d="M99.8,44.4l0,0L99.17,44a.68.68,0,0,0-.59,0l-.24.14a.21.21,0,0,0-.1.08"/><path class="cls-2" d="M98.24,44.27a.16.16,0,0,0,.05.26l.61.35a.65.65,0,0,0,.59,0l.25-.15c.16-.09.18-.23.06-.31"/><path class="cls-2" d="M101.31,45.26l0,0-.6-.35a.62.62,0,0,0-.59,0l-.25.14a.24.24,0,0,0-.09.08"/><path class="cls-2" d="M99.75,45.14a.15.15,0,0,0,0,.26l.6.35a.71.71,0,0,0,.6,0l.24-.14c.16-.09.18-.23.07-.32"/><path class="cls-2" d="M102.81,46.13l0,0-.61-.35a.65.65,0,0,0-.59,0l-.24.14a.44.44,0,0,0-.1.08"/><path class="cls-2" d="M101.25,46a.17.17,0,0,0,0,.27l.61.34a.65.65,0,0,0,.59,0l.25-.14c.16-.1.18-.23.06-.32"/><path class="cls-2" d="M79.88,35.71a.15.15,0,0,0,.05.26l.63.37a.71.71,0,0,0,.6,0l.73-.42c.16-.1.18-.23.07-.32"/><path class="cls-2" d="M79.88,35.71a.24.24,0,0,1,.09-.08l.73-.43a.67.67,0,0,1,.6,0l.63.36,0,0"/><path class="cls-2" d="M81.38,36.57a.17.17,0,0,0,.05.27l.64.36a.65.65,0,0,0,.59,0l.73-.43c.17-.09.19-.22.07-.31"/><path class="cls-2" d="M83.46,36.44l0,0-.64-.36a.65.65,0,0,0-.59,0l-.73.42-.1.08"/><path class="cls-2" d="M82.9,37.45a.16.16,0,0,0,.06.26l.63.37a.65.65,0,0,0,.59,0l.74-.42c.16-.09.18-.23.06-.32"/><path class="cls-2" d="M85,37.31l0,0-.64-.37a.65.65,0,0,0-.59,0l-.73.42a.39.39,0,0,0-.1.08"/><path class="cls-2" d="M84.41,38.32a.15.15,0,0,0,0,.26l.64.37a.68.68,0,0,0,.59,0l.73-.42c.16-.1.18-.23.07-.32"/><path class="cls-2" d="M86.49,38.18l0,0-.63-.36a.65.65,0,0,0-.59,0l-.74.43a.24.24,0,0,0-.09.08"/><path class="cls-2" d="M88,39.05l0,0-.64-.36a.65.65,0,0,0-.59,0L86,39.1l-.1.08"/><path class="cls-2" d="M85.91,39.18a.16.16,0,0,0,.06.27l.63.36a.65.65,0,0,0,.59,0l.74-.43c.16-.09.18-.23.06-.31"/><path class="cls-2" d="M87.43,40.06a.16.16,0,0,0,.06.26l.63.37a.65.65,0,0,0,.59,0l.74-.42c.16-.09.18-.23.06-.32"/><path class="cls-2" d="M89.51,39.92l0,0-.64-.37a.65.65,0,0,0-.59,0l-.73.42a.39.39,0,0,0-.1.08"/><path class="cls-2" d="M88.94,40.93a.15.15,0,0,0,0,.26l.64.37a.68.68,0,0,0,.59,0l.73-.42c.16-.1.18-.23.07-.32"/><path class="cls-2" d="M91,40.79s0,0,0,0l-.63-.36a.65.65,0,0,0-.59,0l-.74.43a.24.24,0,0,0-.09.08"/><path class="cls-2" d="M90.46,41.8a.17.17,0,0,0,.05.27l.64.36a.65.65,0,0,0,.59,0l.73-.43c.16-.09.19-.23.07-.32"/><path class="cls-2" d="M92.54,41.66l0,0-.63-.37a.68.68,0,0,0-.59,0l-.74.42a.36.36,0,0,0-.09.08"/><path class="cls-2" d="M92,42.67a.16.16,0,0,0,.06.26l.63.37a.65.65,0,0,0,.59,0l.74-.42c.16-.09.18-.23.07-.32"/><path class="cls-2" d="M94.05,42.53l0,0-.64-.37a.62.62,0,0,0-.59,0l-.73.42a.39.39,0,0,0-.1.08"/><path class="cls-2" d="M93.47,43.54a.16.16,0,0,0,0,.26l.64.37a.68.68,0,0,0,.59,0l.73-.42c.16-.1.19-.23.07-.32"/><path class="cls-2" d="M95.55,43.4s0,0,0,0L94.89,43a.65.65,0,0,0-.59,0l-.74.43a.24.24,0,0,0-.09.08"/><path class="cls-2" d="M97.07,44.27l0,0-.64-.37a.68.68,0,0,0-.59,0l-.73.42a.29.29,0,0,0-.1.08"/><path class="cls-2" d="M95,44.41a.17.17,0,0,0,.05.27l.64.36a.65.65,0,0,0,.59,0l.73-.43c.16-.09.19-.23.07-.32"/><path class="cls-2" d="M96.5,45.28a.15.15,0,0,0,0,.26l.63.37a.67.67,0,0,0,.6,0l.73-.42c.16-.09.18-.23.07-.32"/><path class="cls-2" d="M98.58,45.14l0,0-.63-.37a.64.64,0,0,0-.6,0l-.73.42a.24.24,0,0,0-.09.08"/><path class="cls-2" d="M98,46.15a.16.16,0,0,0,0,.26l.64.36a.65.65,0,0,0,.59,0l.73-.42c.16-.1.19-.23.07-.32"/><path class="cls-2" d="M100.08,46l0,0-.64-.36a.65.65,0,0,0-.59,0l-.73.43a.21.21,0,0,0-.1.08"/><path class="cls-2" d="M101.6,46.88l0,0-.64-.37a.68.68,0,0,0-.59,0l-.73.42-.1.08"/><path class="cls-2" d="M99.52,47a.16.16,0,0,0,0,.26l.64.37a.65.65,0,0,0,.59,0l.73-.43c.17-.09.19-.23.07-.32"/><path class="cls-2" d="M78.14,36.74a.16.16,0,0,0,0,.26l.64.36a.65.65,0,0,0,.59,0l.73-.42c.16-.1.19-.23.07-.32"/><path class="cls-2" d="M78.14,36.74a.24.24,0,0,1,.09-.08l.74-.43a.65.65,0,0,1,.59,0l.63.36,0,0"/><path class="cls-2" d="M79.64,37.6l.1-.08.73-.42a.65.65,0,0,1,.59,0l.64.36,0,0"/><path class="cls-2" d="M79.64,37.6a.17.17,0,0,0,.06.27l.63.36a.67.67,0,0,0,.6,0l.73-.43c.16-.09.18-.23.07-.32"/><path class="cls-2" d="M81.17,38.48a.24.24,0,0,1,.09-.08L82,38a.64.64,0,0,1,.6,0l.63.37,0,0"/><path class="cls-2" d="M81.17,38.48a.15.15,0,0,0,0,.26l.63.37a.67.67,0,0,0,.6,0l.73-.42c.16-.09.18-.23.07-.32"/><path class="cls-2" d="M82.67,39.34a.29.29,0,0,1,.1-.07l.73-.43a.65.65,0,0,1,.59,0l.64.36,0,0"/><path class="cls-2" d="M82.67,39.34a.17.17,0,0,0,0,.27l.64.36A.65.65,0,0,0,84,40l.73-.42c.16-.1.19-.23.07-.32"/><path class="cls-2" d="M84.18,40.21a.36.36,0,0,1,.09-.08l.73-.42a.71.71,0,0,1,.6,0l.63.37,0,0"/><path class="cls-2" d="M84.18,40.21a.16.16,0,0,0,0,.27l.63.36a.67.67,0,0,0,.6,0l.73-.43c.16-.09.18-.23.07-.32"/><path class="cls-2" d="M85.7,41.09a.15.15,0,0,0,0,.26l.63.37a.67.67,0,0,0,.6,0l.73-.42c.16-.09.18-.23.07-.32"/><path class="cls-2" d="M85.7,41.09a.24.24,0,0,1,.09-.08l.73-.42a.64.64,0,0,1,.6,0l.63.37,0,0"/><path class="cls-2" d="M87.2,42a.17.17,0,0,0,0,.27l.64.36a.65.65,0,0,0,.59,0l.73-.42c.17-.1.19-.23.07-.32"/><path class="cls-2" d="M87.2,42l.1-.07.73-.43a.65.65,0,0,1,.59,0l.64.36,0,0"/><path class="cls-2" d="M88.72,42.83a.16.16,0,0,0,0,.26l.64.37a.65.65,0,0,0,.59,0l.73-.43c.17-.09.19-.23.07-.32"/><path class="cls-2" d="M88.72,42.83l.1-.08.73-.42a.68.68,0,0,1,.59,0l.64.37,0,0"/><path class="cls-2" d="M90.23,43.7a.15.15,0,0,0,0,.26l.64.37a.68.68,0,0,0,.59,0l.73-.42c.16-.1.18-.23.07-.32"/><path class="cls-2" d="M90.23,43.7a.24.24,0,0,1,.09-.08l.73-.42a.64.64,0,0,1,.6,0l.63.37,0,0"/><path class="cls-2" d="M91.73,44.56a.16.16,0,0,0,.06.27l.63.36a.65.65,0,0,0,.59,0l.74-.42c.16-.1.18-.23.06-.32"/><path class="cls-2" d="M91.73,44.56l.1-.07.73-.43a.65.65,0,0,1,.59,0l.64.36,0,0"/><path class="cls-2" d="M93.25,45.44a.16.16,0,0,0,.06.26l.63.37a.62.62,0,0,0,.59,0l.74-.42c.16-.09.18-.23.06-.32"/><path class="cls-2" d="M93.25,45.44l.1-.08.73-.42a.68.68,0,0,1,.59,0l.64.37s0,0,0,0"/><path class="cls-2" d="M94.76,46.31a.24.24,0,0,1,.09-.08l.74-.42a.62.62,0,0,1,.59,0l.63.37s0,0,0,0"/><path class="cls-2" d="M94.76,46.31a.15.15,0,0,0,0,.26l.64.37a.68.68,0,0,0,.59,0l.73-.42c.16-.1.18-.23.07-.32"/><path class="cls-2" d="M96.26,47.17a.17.17,0,0,0,.06.27l.63.36a.65.65,0,0,0,.59,0l.74-.43c.16-.09.18-.22.06-.31"/><path class="cls-2" d="M98.34,47l0,0-.64-.36a.65.65,0,0,0-.59,0l-.73.43-.1.07"/><path class="cls-2" d="M97.78,48.05a.16.16,0,0,0,.06.26l.63.37a.62.62,0,0,0,.59,0l.74-.42c.16-.09.18-.23.06-.32"/><path class="cls-2" d="M97.78,48.05l.1-.08.73-.42a.68.68,0,0,1,.59,0l.64.37,0,0"/><path class="cls-2" d="M76.32,37.76l.1-.08.73-.42a.68.68,0,0,1,.59,0l2.13,1.23,0,0"/><path class="cls-2" d="M76.32,37.76a.17.17,0,0,0,.06.27l2.12,1.22a.62.62,0,0,0,.59,0l.74-.42c.16-.09.18-.23.07-.32"/><path class="cls-2" d="M79.35,39.5a.17.17,0,0,0,.05.27l.64.36a.65.65,0,0,0,.59,0l.73-.42c.16-.1.19-.23.07-.32"/><path class="cls-2" d="M79.35,39.5a.29.29,0,0,1,.1-.07l.73-.43a.65.65,0,0,1,.59,0l.64.36,0,0"/><path class="cls-2" d="M80.86,40.37a.36.36,0,0,1,.09-.08l.73-.42a.71.71,0,0,1,.6,0l.63.37,0,0"/><path class="cls-2" d="M80.86,40.37a.16.16,0,0,0,0,.27l.63.36a.67.67,0,0,0,.6,0l.73-.43c.16-.09.18-.23.07-.32"/><path class="cls-2" d="M82.36,41.24a.16.16,0,0,0,0,.26l.64.37a.65.65,0,0,0,.59,0l.73-.42c.17-.09.19-.23.07-.32"/><path class="cls-2" d="M82.36,41.24a.27.27,0,0,1,.1-.08l.73-.42a.65.65,0,0,1,.59,0l.64.37s0,0,0,0"/><path class="cls-2" d="M83.88,42.11,84,42l.73-.43a.65.65,0,0,1,.59,0l.64.36,0,0"/><path class="cls-2" d="M83.88,42.11a.17.17,0,0,0,.05.27l.64.36a.65.65,0,0,0,.59,0l.73-.42c.17-.1.19-.23.07-.32"/><path class="cls-2" d="M85.39,43a.36.36,0,0,1,.09-.08l.73-.42a.71.71,0,0,1,.6,0l.63.37,0,0"/><path class="cls-2" d="M85.39,43a.16.16,0,0,0,0,.27l.63.36a.67.67,0,0,0,.6,0l.73-.43c.16-.09.18-.23.07-.32"/><path class="cls-2" d="M86.91,43.86a.24.24,0,0,1,.09-.08l.73-.42a.64.64,0,0,1,.6,0l.63.37,0,0"/><path class="cls-2" d="M86.91,43.86a.15.15,0,0,0,0,.26l.64.37a.68.68,0,0,0,.59,0l.73-.42c.16-.1.18-.23.07-.32"/><path class="cls-2" d="M88.41,44.72l.1-.07.73-.43a.65.65,0,0,1,.59,0l.64.36,0,0"/><path class="cls-2" d="M88.41,44.72a.16.16,0,0,0,.06.27l.63.36a.65.65,0,0,0,.59,0l.74-.43c.16-.09.18-.22.06-.31"/><path class="cls-2" d="M89.92,45.59a.36.36,0,0,1,.09-.08l.74-.42a.68.68,0,0,1,.59,0l.63.37,0,0"/><path class="cls-2" d="M89.92,45.59a.16.16,0,0,0,0,.27l.64.36a.65.65,0,0,0,.59,0l.73-.43c.16-.09.18-.23.07-.32"/><path class="cls-2" d="M91.44,46.47a.24.24,0,0,1,.09-.08l.74-.43a.65.65,0,0,1,.59,0l.63.37s0,0,0,0"/><path class="cls-2" d="M91.44,46.47a.15.15,0,0,0,0,.26l.64.37a.68.68,0,0,0,.59,0l.73-.42c.16-.1.18-.23.07-.32"/><path class="cls-2" d="M92.94,47.33l.1-.07.73-.43a.65.65,0,0,1,.59,0l.64.36,0,0"/><path class="cls-2" d="M92.94,47.33a.17.17,0,0,0,.06.27l.63.36a.65.65,0,0,0,.59,0l.74-.43c.16-.09.18-.22.06-.31"/><path class="cls-2" d="M94.45,48.2a.15.15,0,0,0,0,.26l.64.37a.65.65,0,0,0,.59,0l.73-.43c.16-.09.18-.23.07-.32"/><path class="cls-2" d="M94.45,48.2a.36.36,0,0,1,.09-.08l.74-.42a.68.68,0,0,1,.59,0l.63.37,0,0"/><path class="cls-2" d="M94.21,50.09l.1-.07,2.49-1.45a.65.65,0,0,1,.59,0l.63.37s0,0,0,0"/><path class="cls-2" d="M94.21,50.09a.17.17,0,0,0,.05.27l.64.36a.65.65,0,0,0,.59,0L98,49.26c.16-.1.19-.23.07-.32"/><path class="cls-2" d="M74.57,38.78a.24.24,0,0,1,.09-.08l.73-.42a.67.67,0,0,1,.6,0l.63.37,0,0"/><path class="cls-2" d="M74.57,38.78a.15.15,0,0,0,.05.26l.63.37a.64.64,0,0,0,.6,0l.73-.42c.16-.09.18-.23.07-.32"/><path class="cls-2" d="M76.07,39.65a.16.16,0,0,0,.05.26l.64.37a.68.68,0,0,0,.59,0l.73-.42c.17-.1.19-.23.07-.32"/><path class="cls-2" d="M76.07,39.65a.39.39,0,0,1,.1-.08l.73-.43a.65.65,0,0,1,.59,0l.64.36,0,0"/><path class="cls-2" d="M77.59,40.52l.1-.08.73-.42A.68.68,0,0,1,79,40l.64.37s0,0,0,0"/><path class="cls-2" d="M77.59,40.52a.16.16,0,0,0,.06.27l.63.36a.65.65,0,0,0,.59,0l.74-.43c.16-.09.18-.23.06-.32"/><path class="cls-2" d="M79.1,41.39a.24.24,0,0,1,.09-.08l.74-.42a.65.65,0,0,1,.59,0l.63.37,0,0"/><path class="cls-2" d="M79.1,41.39a.15.15,0,0,0,.05.26l.64.37a.65.65,0,0,0,.59,0l.73-.42c.16-.09.18-.23.07-.32"/><path class="cls-2" d="M80.6,42.26a.39.39,0,0,1,.1-.08l.73-.43a.65.65,0,0,1,.59,0l5.18,3,0,0"/><path class="cls-2" d="M80.6,42.26a.16.16,0,0,0,.06.26l5.18,3a.65.65,0,0,0,.59,0l.73-.42c.16-.1.19-.23.07-.32"/><path class="cls-2" d="M86.65,45.74a.17.17,0,0,0,.06.27l.63.36a.67.67,0,0,0,.6,0l.73-.43c.16-.09.18-.23.07-.32"/><path class="cls-2" d="M86.65,45.74l.1-.08.73-.42a.68.68,0,0,1,.59,0l.64.37,0,0"/><path class="cls-2" d="M88.16,46.61a.16.16,0,0,0,0,.26l.64.37a.65.65,0,0,0,.59,0l.73-.42c.16-.09.19-.23.07-.32"/><path class="cls-2" d="M88.16,46.61a.24.24,0,0,1,.09-.08l.74-.42a.62.62,0,0,1,.59,0l.63.37s0,0,0,0"/><path class="cls-2" d="M89.68,47.48a.29.29,0,0,1,.1-.07l.73-.43a.65.65,0,0,1,.59,0l.64.36,0,0"/><path class="cls-2" d="M89.68,47.48a.17.17,0,0,0,0,.27l.64.36a.65.65,0,0,0,.59,0l.73-.43c.16-.09.19-.22.07-.31"/><path class="cls-2" d="M91.19,48.35a.36.36,0,0,1,.09-.08l.73-.42a.71.71,0,0,1,.6,0l.63.37,0,0"/><path class="cls-2" d="M91.19,48.35a.16.16,0,0,0,0,.27l.63.36a.67.67,0,0,0,.6,0l.73-.43c.16-.09.18-.23.07-.32"/><path class="cls-2" d="M92.69,49.22a.16.16,0,0,0,0,.26l.64.37a.65.65,0,0,0,.59,0l.73-.42c.17-.09.19-.23.07-.32"/><path class="cls-2" d="M92.69,49.22a.27.27,0,0,1,.1-.08l.73-.42a.62.62,0,0,1,.59,0l.64.37s0,0,0,0"/><path class="cls-2" d="M83.2,34.83a.24.24,0,0,1-.09.08l-.25.14a.68.68,0,0,1-.59,0l-.61-.35s0,0,0,0"/><path class="cls-2" d="M83.2,34.83a.16.16,0,0,0,0-.26l-.61-.35a.62.62,0,0,0-.59,0l-.24.14c-.17.09-.19.23-.07.32"/><path class="cls-2" d="M84.71,35.7l-.1.08-.24.14a.67.67,0,0,1-.6,0l-.6-.34,0,0"/><path class="cls-2" d="M84.71,35.7a.17.17,0,0,0-.06-.27l-.6-.34a.65.65,0,0,0-.59,0l-.25.14c-.16.1-.18.23-.07.32"/><path class="cls-2" d="M86.21,36.57a.17.17,0,0,0,0-.27L85.55,36A.68.68,0,0,0,85,36l-.24.14c-.17.09-.19.23-.07.32"/><path class="cls-2" d="M86.21,36.57a.35.35,0,0,1-.09.07l-.25.15a.65.65,0,0,1-.59,0l-.61-.35s0,0,0,0"/><path class="cls-2" d="M87.72,37.43a.39.39,0,0,1-.1.08l-.24.14a.67.67,0,0,1-.6,0l-.6-.35,0,0"/><path class="cls-2" d="M87.72,37.43a.16.16,0,0,0-.06-.26l-.6-.35a.62.62,0,0,0-.59,0l-.25.14c-.16.09-.18.23-.07.32"/><path class="cls-2" d="M89.22,38.3a.16.16,0,0,0,0-.26l-.61-.35a.65.65,0,0,0-.59,0l-.24.14c-.17.1-.19.23-.07.32"/><path class="cls-2" d="M89.22,38.3a.36.36,0,0,1-.09.08l-.25.14a.68.68,0,0,1-.59,0l-.61-.35,0,0"/><path class="cls-2" d="M90.73,39.17l-.1.07-.24.15a.67.67,0,0,1-.6,0l-.6-.35,0,0"/><path class="cls-2" d="M90.73,39.17a.17.17,0,0,0-.06-.27l-.6-.35a.68.68,0,0,0-.59,0l-.25.14c-.16.1-.18.23-.07.32"/><path class="cls-2" d="M92.23,40a.24.24,0,0,1-.09.08l-.25.14a.62.62,0,0,1-.59,0l-.61-.35s0,0,0,0"/><path class="cls-2" d="M92.23,40a.15.15,0,0,0,0-.26l-.61-.35a.65.65,0,0,0-.59,0l-.24.14c-.17.09-.19.23-.07.32"/><path class="cls-2" d="M93.74,40.9a.16.16,0,0,0-.06-.26l-.6-.35a.65.65,0,0,0-.59,0l-.25.15c-.16.09-.18.22-.07.31"/><path class="cls-2" d="M93.74,40.9a.39.39,0,0,1-.1.08l-.24.14a.71.71,0,0,1-.6,0l-.6-.35,0,0"/><path class="cls-2" d="M95.24,41.77a.36.36,0,0,1-.09.08L94.9,42a.65.65,0,0,1-.59,0l-.61-.35s0,0,0,0"/><path class="cls-2" d="M95.24,41.77a.16.16,0,0,0,0-.27l-.61-.34a.65.65,0,0,0-.59,0l-.24.14c-.16.1-.19.23-.07.32"/><path class="cls-2" d="M96.75,42.63a.39.39,0,0,1-.1.08l-.24.14a.64.64,0,0,1-.6,0l-.6-.35,0,0"/><path class="cls-2" d="M96.75,42.63a.16.16,0,0,0-.06-.26l-.6-.35a.68.68,0,0,0-.59,0l-.25.14c-.16.09-.18.23-.07.32"/><path class="cls-2" d="M98.3,43.53l-.1.08-.24.14a.65.65,0,0,1-.59,0l-.61-.34,0,0"/><path class="cls-2" d="M98.3,43.53a.17.17,0,0,0,0-.27l-.61-.34a.65.65,0,0,0-.59,0l-.25.14c-.16.1-.18.23-.06.32"/><path class="cls-2" d="M99.8,44.4a.35.35,0,0,1-.09.07l-.25.15a.65.65,0,0,1-.59,0l-.6-.35s0,0,0,0"/><path class="cls-2" d="M99.8,44.4a.16.16,0,0,0,0-.27l-.6-.35a.71.71,0,0,0-.6,0l-.24.14c-.16.09-.18.23-.07.32"/><path class="cls-2" d="M101.31,45.26a.16.16,0,0,0,0-.26l-.61-.35a.62.62,0,0,0-.59,0l-.25.14c-.16.09-.18.23-.06.32"/><path class="cls-2" d="M101.31,45.26a.39.39,0,0,1-.1.08l-.24.14a.68.68,0,0,1-.59,0l-.61-.35s0,0,0,0"/><path class="cls-2" d="M102.81,46.13a.36.36,0,0,1-.09.08l-.25.14a.65.65,0,0,1-.59,0l-.6-.34,0,0"/><path class="cls-2" d="M102.81,46.13a.15.15,0,0,0,0-.26l-.6-.35a.67.67,0,0,0-.6,0l-.24.14c-.16.1-.18.23-.07.32"/><path class="cls-2" d="M82,35.57a.16.16,0,0,0-.06-.27l-.63-.36a.65.65,0,0,0-.59,0l-.74.43c-.16.09-.18.23-.06.32"/><path class="cls-2" d="M79.88,35.71l0,0,.64.37a.68.68,0,0,0,.59,0l.73-.42.1-.08"/><path class="cls-2" d="M83.46,36.44a.35.35,0,0,1-.09.07l-.73.43a.67.67,0,0,1-.6,0l-.63-.36,0,0"/><path class="cls-2" d="M83.46,36.44a.16.16,0,0,0,0-.27l-.64-.36a.65.65,0,0,0-.59,0l-.73.42c-.16.1-.18.23-.07.32"/><path class="cls-2" d="M85,37.31a.24.24,0,0,1-.09.08l-.73.42a.67.67,0,0,1-.6,0l-.63-.37,0,0"/><path class="cls-2" d="M85,37.31a.15.15,0,0,0,0-.26l-.63-.37a.67.67,0,0,0-.6,0l-.73.42c-.16.09-.18.23-.07.32"/><path class="cls-2" d="M86.49,38.18l-.1.08-.73.42a.68.68,0,0,1-.59,0l-.64-.37,0,0"/><path class="cls-2" d="M86.49,38.18a.17.17,0,0,0,0-.27l-.64-.36a.65.65,0,0,0-.59,0l-.73.43c-.17.09-.19.23-.07.32"/><path class="cls-2" d="M88,39.05a.35.35,0,0,1-.09.07l-.73.43a.67.67,0,0,1-.6,0l-.63-.36,0,0"/><path class="cls-2" d="M88,39.05a.16.16,0,0,0,0-.27l-.63-.36a.67.67,0,0,0-.6,0l-.73.42c-.16.1-.18.23-.07.32"/><path class="cls-2" d="M89.51,39.92a.15.15,0,0,0-.05-.26l-.63-.37a.67.67,0,0,0-.6,0l-.73.42c-.16.09-.18.23-.07.32"/><path class="cls-2" d="M89.51,39.92a.24.24,0,0,1-.09.08l-.73.42a.67.67,0,0,1-.6,0l-.63-.37,0,0"/><path class="cls-2" d="M91,40.79a.17.17,0,0,0,0-.27l-.64-.36a.65.65,0,0,0-.59,0l-.73.43c-.16.09-.19.23-.07.32"/><path class="cls-2" d="M91,40.79a.29.29,0,0,1-.1.08l-.73.42a.68.68,0,0,1-.59,0L89,41s0,0,0,0"/><path class="cls-2" d="M92.54,41.66a.16.16,0,0,0-.05-.26L91.85,41a.68.68,0,0,0-.59,0l-.73.42c-.16.1-.19.23-.07.32"/><path class="cls-2" d="M92.54,41.66a.24.24,0,0,1-.09.08l-.74.43a.65.65,0,0,1-.59,0l-.63-.36,0,0"/><path class="cls-2" d="M94.05,42.53a.16.16,0,0,0-.06-.26l-.63-.37a.62.62,0,0,0-.59,0l-.74.42c-.16.09-.18.23-.07.32"/><path class="cls-2" d="M94.05,42.53a.39.39,0,0,1-.1.08l-.73.42a.65.65,0,0,1-.59,0L92,42.69l0,0"/><path class="cls-2" d="M95.55,43.4a.17.17,0,0,0,0-.27l-.64-.36a.65.65,0,0,0-.59,0l-.73.43c-.16.09-.19.23-.07.32"/><path class="cls-2" d="M95.55,43.4a.36.36,0,0,1-.09.08l-.74.42a.68.68,0,0,1-.59,0l-.63-.37,0,0"/><path class="cls-2" d="M97.07,44.27a.24.24,0,0,1-.09.08l-.74.43a.65.65,0,0,1-.59,0L95,44.44l0,0"/><path class="cls-2" d="M97.07,44.27A.16.16,0,0,0,97,44l-.64-.37a.68.68,0,0,0-.59,0l-.73.42c-.16.1-.18.23-.07.32"/><path class="cls-2" d="M98.58,45.14a.16.16,0,0,0-.06-.26l-.63-.37a.62.62,0,0,0-.59,0l-.74.42c-.16.09-.18.23-.06.32"/><path class="cls-2" d="M98.58,45.14a.39.39,0,0,1-.1.08l-.73.42a.65.65,0,0,1-.59,0l-.64-.37,0,0"/><path class="cls-2" d="M100.08,46a.16.16,0,0,0,0-.27l-.64-.36a.65.65,0,0,0-.59,0l-.73.43c-.16.09-.18.23-.07.32"/><path class="cls-2" d="M100.08,46a.36.36,0,0,1-.09.08l-.74.42a.65.65,0,0,1-.59,0L98,46.17l0,0"/><path class="cls-2" d="M101.6,46.88a.24.24,0,0,1-.09.08l-.74.43a.65.65,0,0,1-.59,0L99.55,47l0,0"/><path class="cls-2" d="M101.6,46.88a.15.15,0,0,0,0-.26l-.64-.37a.68.68,0,0,0-.59,0l-.73.42c-.16.1-.18.23-.07.32"/><path class="cls-2" d="M78.14,36.74l0,0,.63.36a.65.65,0,0,0,.59,0l.74-.42a.36.36,0,0,0,.09-.08"/><path class="cls-2" d="M80.22,36.6a.17.17,0,0,0,0-.27L79.53,36a.65.65,0,0,0-.59,0l-.73.43c-.16.09-.19.23-.07.32"/><path class="cls-2" d="M79.64,37.6l0,0,.64.36a.65.65,0,0,0,.59,0l.73-.43a.39.39,0,0,0,.1-.08"/><path class="cls-2" d="M81.73,37.46a.16.16,0,0,0-.06-.26L81,36.83a.68.68,0,0,0-.59,0l-.74.42c-.16.1-.18.23-.07.32"/><path class="cls-2" d="M81.17,38.48l0,0,.64.37a.65.65,0,0,0,.59,0l.73-.42a.39.39,0,0,0,.1-.08"/><path class="cls-2" d="M83.25,38.34a.16.16,0,0,0-.06-.26l-.63-.37a.62.62,0,0,0-.59,0l-.74.42c-.16.09-.18.23-.06.32"/><path class="cls-2" d="M84.75,39.21a.16.16,0,0,0,0-.27l-.64-.36a.65.65,0,0,0-.59,0l-.73.43c-.16.09-.18.23-.07.31"/><path class="cls-2" d="M82.67,39.34l0,0,.63.36a.65.65,0,0,0,.59,0l.74-.42a.36.36,0,0,0,.09-.08"/><path class="cls-2" d="M84.18,40.21l0,0,.64.36a.65.65,0,0,0,.59,0l.73-.43a.39.39,0,0,0,.1-.08"/><path class="cls-2" d="M86.26,40.07a.16.16,0,0,0-.06-.26l-.63-.37a.68.68,0,0,0-.59,0l-.74.42c-.16.1-.18.23-.06.32"/><path class="cls-2" d="M87.78,41a.16.16,0,0,0-.06-.26l-.63-.37a.62.62,0,0,0-.59,0l-.74.42c-.16.09-.18.23-.06.32"/><path class="cls-2" d="M85.7,41.09l0,0,.64.37a.68.68,0,0,0,.59,0l.73-.42.1-.08"/><path class="cls-2" d="M87.2,42l0,0,.63.36a.67.67,0,0,0,.6,0l.73-.42.09-.08"/><path class="cls-2" d="M89.28,41.82a.16.16,0,0,0,0-.27l-.64-.36a.65.65,0,0,0-.59,0l-.73.43c-.16.09-.18.23-.07.31"/><path class="cls-2" d="M88.72,42.83l0,0,.63.37a.67.67,0,0,0,.6,0l.73-.43a.24.24,0,0,0,.09-.08"/><path class="cls-2" d="M90.8,42.69a.15.15,0,0,0,0-.26l-.63-.37a.71.71,0,0,0-.6,0l-.73.42c-.16.1-.18.23-.07.32"/><path class="cls-2" d="M90.23,43.7l0,0,.64.37a.68.68,0,0,0,.59,0l.73-.42.1-.08"/><path class="cls-2" d="M92.31,43.56a.16.16,0,0,0,0-.26l-.64-.37A.62.62,0,0,0,91,43l-.73.42c-.17.09-.19.23-.07.32"/><path class="cls-2" d="M91.73,44.56l0,0,.63.36a.67.67,0,0,0,.6,0l.73-.42.09-.08"/><path class="cls-2" d="M93.81,44.43a.16.16,0,0,0,0-.27l-.63-.36a.67.67,0,0,0-.6,0l-.73.43c-.16.09-.18.22-.07.31"/><path class="cls-2" d="M95.33,45.3a.15.15,0,0,0,0-.26l-.63-.37a.71.71,0,0,0-.6,0l-.73.42c-.16.1-.18.23-.07.32"/><path class="cls-2" d="M93.25,45.44l0,0,.63.37a.64.64,0,0,0,.6,0l.73-.42a.24.24,0,0,0,.09-.08"/><path class="cls-2" d="M96.84,46.17a.16.16,0,0,0,0-.26l-.64-.37a.62.62,0,0,0-.59,0l-.73.42c-.17.09-.19.23-.07.32"/><path class="cls-2" d="M94.76,46.31l0,0,.64.37a.68.68,0,0,0,.59,0l.73-.42a.44.44,0,0,0,.1-.08"/><path class="cls-2" d="M98.34,47a.35.35,0,0,1-.09.07l-.73.43a.67.67,0,0,1-.6,0l-.63-.36,0,0"/><path class="cls-2" d="M98.34,47a.16.16,0,0,0,0-.27l-.63-.36a.67.67,0,0,0-.6,0l-.73.43c-.16.09-.18.22-.07.31"/><path class="cls-2" d="M99.86,47.91a.15.15,0,0,0,0-.26l-.63-.37a.71.71,0,0,0-.6,0l-.73.42c-.16.1-.18.23-.07.32"/><path class="cls-2" d="M97.78,48.05l0,0,.64.37a.62.62,0,0,0,.59,0l.73-.42a.24.24,0,0,0,.09-.08"/><path class="cls-2" d="M76.32,37.76l0,0L78.48,39a.62.62,0,0,0,.59,0l.73-.42a.39.39,0,0,0,.1-.08"/><path class="cls-2" d="M79.9,38.48a.16.16,0,0,0-.06-.26L77.72,37a.68.68,0,0,0-.59,0l-.74.42c-.16.1-.18.23-.07.32"/><path class="cls-2" d="M79.35,39.5l0,0,.63.36a.65.65,0,0,0,.59,0l.74-.42.09-.08"/><path class="cls-2" d="M81.43,39.37a.16.16,0,0,0-.05-.27l-.64-.36a.65.65,0,0,0-.59,0l-.73.43c-.16.09-.18.23-.07.31"/><path class="cls-2" d="M80.86,40.37l0,0,.64.36a.65.65,0,0,0,.59,0l.73-.43a.39.39,0,0,0,.1-.08"/><path class="cls-2" d="M82.94,40.23a.16.16,0,0,0-.06-.26l-.63-.37a.68.68,0,0,0-.59,0l-.74.42c-.16.1-.18.23-.06.32"/><path class="cls-2" d="M82.36,41.24s0,0,0,0l.63.37a.65.65,0,0,0,.59,0l.74-.42a.24.24,0,0,0,.09-.08"/><path class="cls-2" d="M84.44,41.1a.15.15,0,0,0,0-.26l-.64-.37a.65.65,0,0,0-.59,0l-.73.42c-.16.09-.18.23-.07.32"/><path class="cls-2" d="M83.88,42.11l0,0,.63.36a.65.65,0,0,0,.59,0l.74-.42L86,42"/><path class="cls-2" d="M86,42a.16.16,0,0,0,0-.27l-.64-.36a.65.65,0,0,0-.59,0L84,41.8c-.16.09-.18.22-.07.31"/><path class="cls-2" d="M87.47,42.84c.08-.09.06-.19-.06-.26l-.63-.37a.68.68,0,0,0-.59,0l-.74.42c-.16.1-.18.23-.06.32"/><path class="cls-2" d="M85.39,43l0,0,.64.36a.65.65,0,0,0,.59,0l.73-.43a.39.39,0,0,0,.1-.08"/><path class="cls-2" d="M89,43.72a.16.16,0,0,0,0-.26l-.64-.37a.62.62,0,0,0-.59,0l-.73.42c-.17.09-.19.23-.07.32"/><path class="cls-2" d="M86.91,43.86s0,0,0,0l.64.37a.68.68,0,0,0,.59,0l.73-.42.1-.08"/><path class="cls-2" d="M90.49,44.59a.16.16,0,0,0,0-.27L89.81,44a.67.67,0,0,0-.6,0l-.73.43c-.16.09-.18.22-.07.31"/><path class="cls-2" d="M88.41,44.72l0,0,.63.36a.67.67,0,0,0,.6,0l.73-.43a.35.35,0,0,0,.09-.07"/><path class="cls-2" d="M89.92,45.59l0,0,.64.37a.65.65,0,0,0,.59,0l.73-.43a.39.39,0,0,0,.1-.08"/><path class="cls-2" d="M92,45.45a.16.16,0,0,0,0-.26l-.64-.37a.68.68,0,0,0-.59,0l-.73.42c-.17.1-.19.23-.07.32"/><path class="cls-2" d="M91.44,46.47s0,0,0,0l.64.37a.68.68,0,0,0,.59,0l.73-.42a.44.44,0,0,0,.1-.08"/><path class="cls-2" d="M93.52,46.33a.16.16,0,0,0,0-.26l-.64-.37a.65.65,0,0,0-.59,0l-.73.43c-.17.09-.19.23-.07.32"/><path class="cls-2" d="M92.94,47.33l0,0,.63.36a.67.67,0,0,0,.6,0l.73-.43A.35.35,0,0,0,95,47.2"/><path class="cls-2" d="M95,47.2a.16.16,0,0,0,0-.27l-.63-.36a.67.67,0,0,0-.6,0L93,47c-.16.09-.18.22-.07.31"/><path class="cls-2" d="M96.53,48.06a.16.16,0,0,0,0-.26l-.64-.37a.68.68,0,0,0-.59,0l-.73.42c-.16.1-.19.23-.07.32"/><path class="cls-2" d="M94.45,48.2s0,0,0,0l.64.37a.65.65,0,0,0,.59,0l.73-.43a.21.21,0,0,0,.1-.08"/><path class="cls-2" d="M98.05,48.94a.16.16,0,0,0,0-.26l-.64-.37a.65.65,0,0,0-.59,0l-2.49,1.45c-.16.09-.18.22-.07.31"/><path class="cls-2" d="M94.21,50.09l0,0,.63.36a.67.67,0,0,0,.6,0L98,49a.36.36,0,0,0,.09-.08"/><path class="cls-2" d="M74.57,38.78l0,0,.64.37a.62.62,0,0,0,.59,0l.73-.42a.39.39,0,0,0,.1-.08"/><path class="cls-2" d="M76.65,38.64a.16.16,0,0,0-.05-.26L76,38a.65.65,0,0,0-.59,0l-.73.42c-.17.09-.19.23-.07.32"/><path class="cls-2" d="M76.07,39.65l0,0,.63.37a.71.71,0,0,0,.6,0l.73-.42a.36.36,0,0,0,.09-.08"/><path class="cls-2" d="M78.15,39.51a.16.16,0,0,0-.05-.27l-.63-.36a.67.67,0,0,0-.6,0l-.73.43c-.16.09-.18.23-.07.32"/><path class="cls-2" d="M77.59,40.52l0,0,.63.36a.67.67,0,0,0,.6,0l.73-.43a.24.24,0,0,0,.09-.08"/><path class="cls-2" d="M79.67,40.38a.15.15,0,0,0,0-.26L79,39.75a.71.71,0,0,0-.6,0l-.73.42c-.16.1-.18.23-.07.32"/><path class="cls-2" d="M81.18,41.25a.16.16,0,0,0-.05-.26l-.64-.37a.65.65,0,0,0-.59,0l-.73.42c-.17.09-.19.23-.07.32"/><path class="cls-2" d="M79.1,41.39l0,0,.64.37a.65.65,0,0,0,.59,0l.73-.42a.27.27,0,0,0,.1-.08"/><path class="cls-2" d="M87.23,44.74a.17.17,0,0,0,0-.27l-5.18-3a.67.67,0,0,0-.6,0l-.73.43c-.16.09-.18.23-.07.32"/><path class="cls-2" d="M80.6,42.26l0,0,5.18,3a.65.65,0,0,0,.59,0l.74-.43a.35.35,0,0,0,.09-.07"/><path class="cls-2" d="M88.74,45.6a.16.16,0,0,0-.06-.26L88.05,45a.68.68,0,0,0-.59,0l-.74.42c-.16.1-.18.23-.07.32"/><path class="cls-2" d="M86.65,45.74l0,0,.64.36a.65.65,0,0,0,.59,0l.73-.43a.39.39,0,0,0,.1-.08"/><path class="cls-2" d="M90.24,46.47a.16.16,0,0,0,0-.26l-.64-.37a.62.62,0,0,0-.59,0l-.73.42c-.16.09-.19.23-.07.32"/><path class="cls-2" d="M88.16,46.61s0,0,0,0l.63.37a.65.65,0,0,0,.59,0l.74-.42a.24.24,0,0,0,.09-.08"/><path class="cls-2" d="M89.68,47.48s0,0,0,0l.63.36a.65.65,0,0,0,.59,0l.74-.43a.35.35,0,0,0,.09-.07"/><path class="cls-2" d="M91.76,47.35a.16.16,0,0,0-.05-.27l-.64-.36a.65.65,0,0,0-.59,0l-.73.43c-.16.09-.18.22-.07.31"/><path class="cls-2" d="M93.27,48.21a.16.16,0,0,0-.06-.26l-.63-.37a.68.68,0,0,0-.59,0l-.74.42c-.16.1-.18.23-.06.32"/><path class="cls-2" d="M91.19,48.35l0,0,.64.36a.65.65,0,0,0,.59,0l.73-.43a.39.39,0,0,0,.1-.08"/><path class="cls-2" d="M92.69,49.22s0,0,0,0l.63.37a.65.65,0,0,0,.59,0l.74-.42a.24.24,0,0,0,.09-.08"/><path class="cls-2" d="M94.77,49.08a.15.15,0,0,0,0-.26l-.64-.37a.62.62,0,0,0-.59,0l-.73.42c-.16.09-.18.23-.07.32"/></g><line class="cls-3" x1="83.49" y1="107.93" x2="86.25" y2="109.5"/><polyline class="cls-3" points="80.19 109.22 80.19 109.63 86.25 113.07"/><polyline class="cls-3" points="83.49 107.93 80.19 106.06 80.19 109.22"/><line class="cls-3" x1="89.23" y1="108.14" x2="92.06" y2="109.72"/><polyline class="cls-3" points="92.06 106.13 86.25 106.47 89.23 108.14"/><polyline class="cls-3" points="87.46 104.39 93.89 102.16 97.89 95.7 94.2 92.68 87.46 97.4"/><polyline class="cls-3" points="87.46 93.04 95.13 89.61 96.36 83.62 92.67 82.74 87.47 86.99"/><line class="cls-3" x1="77.45" y1="81.48" x2="80.21" y2="79.89"/><line class="cls-3" x1="89.25" y1="81.61" x2="86.27" y2="79.92"/><polyline class="cls-3" points="86.27 79.92 83.19 78.17 83.33 78.09"/><line class="cls-3" x1="86.02" y1="76.56" x2="83.33" y2="78.09"/><line class="cls-3" x1="92.08" y1="80" x2="89.25" y2="81.61"/><polyline class="cls-3" points="92.08 78.35 95.47 79.76 96.87 78.55"/><line class="cls-3" x1="92.61" y1="76.1" x2="95.06" y2="77.52"/><line class="cls-3" x1="96.87" y1="78.55" x2="95.06" y2="77.52"/><polyline class="cls-3" points="90.71 75.63 91.09 75.23 92.61 76.11"/><polyline class="cls-3" points="90.71 75.63 89.25 77.18 92.08 78.35"/><line class="cls-3" x1="80.21" y1="76.32" x2="80.21" y2="79.89"/><line class="cls-3" x1="80.21" y1="79.89" x2="86.26" y2="83.33"/><line class="cls-3" x1="86.02" y1="76.2" x2="86.02" y2="76.56"/><line class="cls-3" x1="86.02" y1="76.2" x2="86.02" y2="72.97"/><line class="cls-3" x1="92.08" y1="80" x2="89.25" y2="78.39"/><line class="cls-3" x1="88.94" y1="78.22" x2="89.25" y2="78.39"/><line class="cls-3" x1="88.94" y1="78.22" x2="86.02" y2="76.56"/><polyline class="cls-3" points="86.02 72.97 89.01 71.25 95.06 74.69"/><line class="cls-3" x1="90.71" y1="75.63" x2="92.08" y2="76.41"/><line class="cls-3" x1="90.71" y1="75.63" x2="86.02" y2="72.97"/><line class="cls-3" x1="86.02" y1="76.2" x2="89.25" y2="78.04"/><polyline class="cls-3" points="86.02 76.2 83.2 74.6 80.21 76.32"/><line class="cls-3" x1="80.21" y1="76.32" x2="83.33" y2="78.09"/><line class="cls-3" x1="86.27" y1="79.76" x2="83.33" y2="78.09"/><path class="cls-3" d="M87.46,104.39l3.67-2.11a21.87,21.87,0,0,0,2.71-1.73,5.44,5.44,0,0,0,1.44-1.87,5.81,5.81,0,0,0,.56-2.55,2.91,2.91,0,0,0-.43-1.75,1.24,1.24,0,0,0-1.23-.48,13.08,13.08,0,0,0-3.52,1.65l-3.2,1.85"/><path class="cls-3" d="M96.87,78.55a2.77,2.77,0,0,1,1.51,1.32,5.31,5.31,0,0,1,.6,2.71,10.8,10.8,0,0,1-.74,3.8,11.8,11.8,0,0,1-2,3.47,2.7,2.7,0,0,1,2.76.78,5.12,5.12,0,0,1,1,3.39,13,13,0,0,1-.63,3.83,13.87,13.87,0,0,1-1.7,3.69,10.65,10.65,0,0,1-2.56,2.71V108l-3,1.72"/><path class="cls-3" d="M95.06,77.52v1.06a3,3,0,0,1,1.81,0"/><path class="cls-3" d="M87.46,93l2.6-1.5c1.55-.89,2.51-1.47,2.88-1.75a5.23,5.23,0,0,0,1.6-1.86,5,5,0,0,0,.58-2.37,2.21,2.21,0,0,0-.5-1.69c-.33-.31-.83-.33-1.49-.06-.39.17-1.52.79-3.39,1.87L87.47,87"/><polyline class="cls-3" points="89.23 108.14 89.23 111.35 86.25 113.07"/><path class="cls-3" d="M92.06,106.13c-.56.34-1.19.7-1.89,1.11l-.94.54v.36"/><line class="cls-3" x1="83.49" y1="111.09" x2="86.25" y2="109.5"/><line class="cls-3" x1="95.06" y1="77.52" x2="95.06" y2="74.69"/><line class="cls-3" x1="89.25" y1="78.04" x2="89.25" y2="78.39"/><line class="cls-3" x1="89.25" y1="81.61" x2="89.25" y2="78.39"/><path class="cls-3" d="M92.08,80c-.24.12-.48.25-.73.4l-2.1,1.21"/><line class="cls-3" x1="86.25" y1="113.07" x2="86.25" y2="109.5"/><line class="cls-3" x1="92.06" y1="106.13" x2="92.06" y2="109.72"/><line class="cls-3" x1="87.46" y1="104.39" x2="87.46" y2="97.4"/><line class="cls-3" x1="87.46" y1="93.04" x2="87.47" y2="86.99"/><line class="cls-3" x1="83.5" y1="84.92" x2="86.26" y2="83.33"/><line class="cls-3" x1="86.26" y1="83.33" x2="86.27" y2="79.92"/><line class="cls-3" x1="86.27" y1="79.76" x2="86.27" y2="79.92"/><line class="cls-3" x1="92.08" y1="78.35" x2="92.08" y2="76.41"/><line class="cls-3" x1="92.08" y1="78.35" x2="92.08" y2="80"/><line class="cls-3" x1="92.08" y1="76.41" x2="92.61" y2="76.1"/><line class="cls-3" x1="92.61" y1="76.1" x2="95.06" y2="74.69"/><line class="cls-3" x1="88.94" y1="78.22" x2="86.27" y2="79.76"/><line class="cls-3" x1="88.94" y1="78.22" x2="89.25" y2="78.04"/><polyline class="cls-3" points="77.45 81.48 77.43 107.65 80.19 109.22"/><line class="cls-3" x1="83.49" y1="111.09" x2="80.19" y2="109.22"/><line class="cls-3" x1="77.45" y1="81.48" x2="83.5" y2="84.92"/><line class="cls-3" x1="83.49" y1="107.93" x2="83.5" y2="84.92"/><line class="cls-3" x1="83.49" y1="111.09" x2="83.49" y2="107.93"/><line class="cls-3" x1="83.33" y1="160.53" x2="85.33" y2="159.37"/><line class="cls-4" x1="85.33" y1="159.37" x2="86.97" y2="158.42"/><line class="cls-3" x1="88.88" y1="127.12" x2="88.88" y2="124.6"/><line class="cls-3" x1="88.88" y1="128.9" x2="88.88" y2="127.66"/><line class="cls-3" x1="88.88" y1="120.37" x2="88.88" y2="122.83"/><line class="cls-3" x1="79.61" y1="162.68" x2="81.79" y2="161.41"/><line class="cls-3" x1="81.79" y1="161.41" x2="82.25" y2="161.15"/><line class="cls-3" x1="83.33" y1="160.53" x2="82.25" y2="161.15"/><line class="cls-3" x1="88.88" y1="131.42" x2="88.88" y2="128.9"/><line class="cls-3" x1="88.88" y1="133.2" x2="88.88" y2="131.96"/><line class="cls-3" x1="88.88" y1="135.52" x2="88.88" y2="133.2"/><line class="cls-3" x1="88.88" y1="139.2" x2="88.88" y2="139.08"/><line class="cls-3" x1="78.53" y1="163.3" x2="79.61" y2="162.68"/><line class="cls-3" x1="88.88" y1="127.12" x2="88.88" y2="127.12"/><line class="cls-3" x1="88.88" y1="127.66" x2="88.88" y2="127.12"/><line class="cls-3" x1="88.88" y1="131.96" x2="88.88" y2="131.42"/><line class="cls-3" x1="87.02" y1="158.4" x2="86.97" y2="158.42"/><line class="cls-3" x1="76.39" y1="164.53" x2="75.91" y2="164.81"/><line class="cls-4" x1="88.88" y1="135.52" x2="88.88" y2="139.08"/><line class="cls-3" x1="78.07" y1="163.56" x2="77.93" y2="163.64"/><line class="cls-3" x1="81.79" y1="161.41" x2="81.79" y2="161.41"/><line class="cls-3" x1="77.93" y1="163.64" x2="76.39" y2="164.53"/><line class="cls-3" x1="78.07" y1="163.56" x2="78.53" y2="163.3"/><line class="cls-3" x1="75.56" y1="165.01" x2="75.56" y2="165.01"/><line class="cls-3" x1="75.56" y1="165.01" x2="75.91" y2="164.81"/><line class="cls-3" x1="88.88" y1="124.6" x2="88.88" y2="123.36"/><line class="cls-3" x1="88.88" y1="122.83" x2="88.88" y2="123.36"/><line class="cls-3" x1="88.88" y1="131.42" x2="88.88" y2="131.42"/><polyline class="cls-4" points="87.02 158.4 88.88 157.32 88.88 139.2"/><polyline class="cls-4" points="101.99 127.95 101.99 164.9 88.67 172.59"/><line class="cls-3" x1="89.65" y1="170.39" x2="89.37" y2="170.18"/><line class="cls-3" x1="100" y1="131.71" x2="100.35" y2="131.5"/><polyline class="cls-3" points="100 131.71 89.7 137.65 88.88 139.2"/><polyline class="cls-3" points="87.02 158.4 87.02 166.67 87.55 168.85 89.37 170.18"/><polyline class="cls-3" points="87.02 158.4 87.02 144.5 87.55 141.71 88.88 139.2"/><polyline class="cls-3" points="89.65 170.39 89.65 170.39 89.65 170.39"/><polyline class="cls-3" points="100 131.65 89.65 137.62 88.88 139.08"/><line class="cls-3" x1="100" y1="131.65" x2="100.35" y2="131.45"/><polyline class="cls-3" points="89.65 170.39 87.5 168.82 86.97 166.64 86.97 158.42"/><polyline class="cls-3" points="88.88 139.08 87.5 141.68 86.97 144.47 86.97 158.42"/><polyline class="cls-3" points="100 131.71 100 164.04 89.37 170.18"/><polyline class="cls-3" points="100 131.65 100 131.65 100.35 131.45"/><polyline class="cls-3" points="89.37 170.18 89.37 170.18 89.65 170.39"/><line class="cls-3" x1="100" y1="131.65" x2="100" y2="131.71"/><line class="cls-3" x1="89.65" y1="170.39" x2="89.65" y2="170.39"/><polyline class="cls-3" points="89.65 170.39 100.35 164.21 100.35 131.5"/><line class="cls-3" x1="100.35" y1="131.5" x2="100.35" y2="131.45"/><line class="cls-3" x1="72.88" y1="133.11" x2="72.22" y2="136.58"/><line class="cls-3" x1="85.33" y1="144.16" x2="85.99" y2="140.69"/><line class="cls-3" x1="75.56" y1="128.06" x2="72.88" y2="133.11"/><line class="cls-3" x1="85.99" y1="140.69" x2="88.67" y2="135.64"/><line class="cls-3" x1="78.73" y1="136.49" x2="79.19" y2="136.76"/><line class="cls-3" x1="75.47" y1="134.61" x2="76.54" y2="135.23"/><line class="cls-3" x1="82.45" y1="138.64" x2="82.45" y2="138.64"/><line class="cls-3" x1="75.47" y1="134.61" x2="75.01" y2="134.34"/><line class="cls-3" x1="78.73" y1="136.49" x2="78.73" y2="136.49"/><line class="cls-3" x1="83.99" y1="139.53" x2="82.91" y2="138.91"/><line class="cls-3" x1="79.19" y1="136.76" x2="80.26" y2="137.38"/><line class="cls-3" x1="83.99" y1="139.53" x2="85.99" y2="140.69"/><line class="cls-3" x1="82.91" y1="138.91" x2="82.45" y2="138.64"/><line class="cls-3" x1="76.54" y1="135.23" x2="78.73" y2="136.49"/><line class="cls-3" x1="80.26" y1="137.38" x2="82.45" y2="138.64"/><line class="cls-3" x1="72.88" y1="133.11" x2="75.01" y2="134.34"/><line class="cls-3" x1="72.22" y1="160.34" x2="72.88" y2="163.05"/><line class="cls-3" x1="85.99" y1="170.63" x2="85.33" y2="167.92"/><line class="cls-3" x1="75.56" y1="165.01" x2="75.56" y2="165.01"/><line class="cls-3" x1="78.86" y1="166.92" x2="76.05" y2="165.3"/><line class="cls-3" x1="81.41" y1="168.39" x2="88.67" y2="172.59"/><line class="cls-3" x1="79.32" y1="167.19" x2="78.86" y2="166.92"/><line class="cls-4" x1="76.05" y1="165.3" x2="75.56" y2="165.01"/><line class="cls-4" x1="81.41" y1="168.39" x2="79.32" y2="167.19"/><line class="cls-3" x1="75.1" y1="164.68" x2="75.56" y2="165.01"/><line class="cls-3" x1="75.56" y1="165.01" x2="75.56" y2="165.01"/><line class="cls-3" x1="72.88" y1="163.05" x2="75.1" y2="164.68"/><line class="cls-3" x1="88.67" y1="172.59" x2="85.99" y2="170.63"/><line class="cls-3" x1="82.47" y1="168.6" x2="82.47" y2="168.6"/><line class="cls-3" x1="72.88" y1="163.05" x2="75.01" y2="164.28"/><line class="cls-3" x1="83.99" y1="169.48" x2="82.93" y2="168.86"/><line class="cls-3" x1="79.2" y1="166.71" x2="80.26" y2="167.32"/><line class="cls-3" x1="80.26" y1="167.32" x2="82.47" y2="168.6"/><line class="cls-3" x1="75.01" y1="164.28" x2="75.45" y2="164.54"/><line class="cls-3" x1="83.99" y1="169.48" x2="85.99" y2="170.63"/><line class="cls-3" x1="78.75" y1="166.45" x2="76.55" y2="165.18"/><line class="cls-3" x1="75.91" y1="164.81" x2="75.45" y2="164.54"/><line class="cls-3" x1="82.93" y1="168.86" x2="82.47" y2="168.6"/><line class="cls-3" x1="79.2" y1="166.71" x2="78.75" y2="166.45"/><line class="cls-3" x1="76.55" y1="165.18" x2="75.91" y2="164.81"/><line class="cls-3" x1="72.22" y1="136.58" x2="72.22" y2="160.34"/><line class="cls-3" x1="85.33" y1="167.92" x2="85.33" y2="159.37"/><line class="cls-3" x1="85.33" y1="144.16" x2="85.33" y2="159.37"/><line class="cls-3" x1="72.22" y1="136.58" x2="74.35" y2="137.81"/><line class="cls-3" x1="81.79" y1="142.11" x2="81.79" y2="142.11"/><line class="cls-3" x1="75.89" y1="138.7" x2="78.07" y2="139.96"/><line class="cls-3" x1="74.81" y1="138.08" x2="74.35" y2="137.81"/><line class="cls-3" x1="75.89" y1="138.7" x2="74.81" y2="138.08"/><line class="cls-3" x1="82.25" y1="142.38" x2="81.79" y2="142.11"/><line class="cls-3" x1="83.33" y1="143" x2="82.25" y2="142.38"/><line class="cls-3" x1="78.07" y1="139.96" x2="78.53" y2="140.22"/><line class="cls-3" x1="79.61" y1="140.85" x2="81.79" y2="142.11"/><line class="cls-3" x1="85.33" y1="144.16" x2="83.33" y2="143"/><line class="cls-3" x1="78.53" y1="140.22" x2="79.61" y2="140.85"/><line class="cls-3" x1="77.93" y1="163.64" x2="78.07" y2="163.72"/><line class="cls-3" x1="78.53" y1="163.99" x2="78.07" y2="163.72"/><line class="cls-3" x1="83.33" y1="166.76" x2="82.25" y2="166.14"/><line class="cls-3" x1="82.25" y1="166.14" x2="81.79" y2="165.88"/><line class="cls-3" x1="77.93" y1="163.64" x2="75.89" y2="162.46"/><line class="cls-3" x1="78.53" y1="163.99" x2="79.61" y2="164.61"/><line class="cls-3" x1="75.89" y1="162.46" x2="74.81" y2="161.84"/><line class="cls-3" x1="79.61" y1="164.61" x2="81.79" y2="165.88"/><line class="cls-3" x1="81.79" y1="165.88" x2="81.79" y2="165.88"/><line class="cls-3" x1="83.33" y1="166.76" x2="85.33" y2="167.92"/><line class="cls-3" x1="74.35" y1="161.58" x2="74.81" y2="161.84"/><line class="cls-3" x1="74.35" y1="161.58" x2="72.22" y2="160.34"/><polyline class="cls-3" points="95.81 124.9 96.26 124.64 98.45 125.9"/><line class="cls-3" x1="98.45" y1="125.9" x2="98.45" y2="125.9"/><line class="cls-3" x1="91.01" y1="121.6" x2="88.88" y2="120.37"/><line class="cls-3" x1="91.01" y1="121.6" x2="91.01" y2="121.6"/><polyline class="cls-3" points="99.53 127.05 99.98 126.79 101.99 127.95"/><polyline class="cls-3" points="92.09 122.75 92.55 122.49 94.73 123.75"/><line class="cls-3" x1="98.45" y1="125.9" x2="98.45" y2="125.9"/><line class="cls-3" x1="75.56" y1="128.06" x2="88.88" y2="120.37"/><line class="cls-3" x1="88.88" y1="135.52" x2="88.67" y2="135.64"/><line class="cls-3" x1="101.99" y1="127.95" x2="88.88" y2="135.52"/><line class="cls-3" x1="75.56" y1="128.06" x2="77.69" y2="129.29"/><line class="cls-3" x1="77.69" y1="129.29" x2="78.15" y2="129.55"/><line class="cls-3" x1="81.41" y1="131.44" x2="81.41" y2="131.44"/><line class="cls-3" x1="78.15" y1="129.55" x2="79.23" y2="130.18"/><line class="cls-3" x1="81.41" y1="131.44" x2="81.87" y2="131.7"/><line class="cls-3" x1="82.94" y1="132.33" x2="85.13" y2="133.59"/><line class="cls-3" x1="79.23" y1="130.18" x2="81.41" y2="131.44"/><line class="cls-3" x1="86.67" y1="134.48" x2="88.67" y2="135.64"/><line class="cls-3" x1="85.13" y1="133.59" x2="85.13" y2="133.59"/><line class="cls-3" x1="85.59" y1="133.86" x2="86.67" y2="134.48"/><line class="cls-3" x1="82.94" y1="132.33" x2="81.87" y2="131.7"/><line class="cls-3" x1="85.59" y1="133.86" x2="85.13" y2="133.59"/><polyline class="cls-3" points="76.05 165.3 77.69 166.24 76.55 165.18"/><polyline class="cls-3" points="76.55 165.18 76.55 165.17 76.39 164.53"/><polyline class="cls-3" points="75.89 138.7 75.89 138.7 76.55 135.23"/><line class="cls-3" x1="75.89" y1="162.46" x2="76.39" y2="164.53"/><polyline class="cls-3" points="75.89 138.7 75.89 162.46 75.89 162.46"/><polyline class="cls-3" points="79.23 130.18 79.23 130.18 88.88 124.6"/><polyline class="cls-3" points="79.23 130.18 76.55 135.23 76.55 135.23"/><line class="cls-3" x1="75.11" y1="164.69" x2="75.56" y2="165.01"/><line class="cls-3" x1="92.09" y1="122.75" x2="88.88" y2="124.6"/><line class="cls-3" x1="75.56" y1="165.01" x2="75.56" y2="165.01"/><line class="cls-3" x1="75.56" y1="165.01" x2="75.56" y2="165.01"/><line class="cls-3" x1="75.56" y1="165.01" x2="75.56" y2="165.01"/><polyline class="cls-4" points="75.56 165.01 75.56 165.01 76.05 165.3"/><line class="cls-3" x1="92.09" y1="122.75" x2="91.01" y2="122.13"/><polyline class="cls-3" points="74.81 138.07 74.81 138.08 74.81 161.84"/><polyline class="cls-3" points="75.47 134.61 78.15 129.56 78.15 129.56"/><polyline class="cls-3" points="75.45 164.54 74.81 161.84 74.81 161.84"/><line class="cls-3" x1="75.11" y1="164.69" x2="75.56" y2="165.01"/><line class="cls-3" x1="91.01" y1="122.13" x2="88.88" y2="123.36"/><line class="cls-3" x1="78.15" y1="129.55" x2="88.88" y2="123.36"/><polyline class="cls-3" points="75.47 134.61 75.47 134.61 74.81 138.07"/><line class="cls-3" x1="75.56" y1="165.01" x2="75.56" y2="165.01"/><line class="cls-3" x1="75.45" y1="164.54" x2="75.56" y2="165.01"/><polyline class="cls-3" points="77.69 129.29 75.01 134.34 75.01 134.34"/><polyline class="cls-3" points="91.01 121.6 91.01 121.6 91.01 121.6"/><line class="cls-3" x1="75.1" y1="164.68" x2="75.11" y2="164.69"/><line class="cls-3" x1="75.1" y1="164.68" x2="75.01" y2="164.28"/><line class="cls-3" x1="74.35" y1="161.58" x2="75.01" y2="164.28"/><line class="cls-3" x1="88.88" y1="122.83" x2="91.01" y2="121.6"/><polyline class="cls-3" points="75.01 134.34 74.35 137.81 74.35 137.81"/><polyline class="cls-3" points="74.35 137.81 74.35 161.57 74.35 161.57"/><polyline class="cls-3" points="77.69 129.29 77.69 129.29 88.88 122.83"/><line class="cls-3" x1="91.01" y1="121.6" x2="91.01" y2="122.13"/><polyline class="cls-3" points="79.61 164.61 79.61 164.61 79.61 162.68"/><polyline class="cls-3" points="79.61 140.85 79.61 140.85 80.26 137.38"/><line class="cls-3" x1="88.88" y1="127.12" x2="81.41" y2="131.44"/><polyline class="cls-4" points="81.41 168.39 81.41 168.39 79.32 167.19"/><line class="cls-3" x1="79.32" y1="167.19" x2="78.87" y2="166.93"/><polyline class="cls-3" points="81.41 131.44 81.41 131.44 78.73 136.49"/><line class="cls-3" x1="78.73" y1="136.49" x2="78.73" y2="136.49"/><polyline class="cls-3" points="88.88 128.9 82.94 132.33 82.94 132.33"/><polyline class="cls-4" points="95.81 124.9 96.26 124.64 95.81 124.9"/><polyline class="cls-3" points="82.94 132.33 80.26 137.38 80.26 137.38"/><polyline class="cls-3" points="79.61 164.61 80.26 167.32 80.26 167.32"/><line class="cls-3" x1="94.73" y1="123.75" x2="88.88" y2="127.12"/><line class="cls-3" x1="81.41" y1="168.39" x2="80.26" y2="167.32"/><line class="cls-3" x1="95.81" y1="124.9" x2="88.88" y2="128.9"/><line class="cls-3" x1="79.61" y1="140.85" x2="79.61" y2="162.68"/><line class="cls-4" x1="95.81" y1="124.9" x2="95.81" y2="124.9"/><line class="cls-3" x1="95.81" y1="124.9" x2="94.73" y2="124.28"/><line class="cls-3" x1="81.87" y1="131.7" x2="88.88" y2="127.66"/><line class="cls-3" x1="94.73" y1="123.75" x2="88.88" y2="127.12"/><line class="cls-3" x1="79.2" y1="166.71" x2="79.32" y2="167.19"/><line class="cls-3" x1="94.73" y1="124.28" x2="88.88" y2="127.66"/><polyline class="cls-3" points="78.53 140.22 79.18 136.76 79.19 136.76"/><line class="cls-3" x1="78.73" y1="136.49" x2="78.73" y2="136.49"/><polyline class="cls-3" points="78.53 163.3 78.53 140.23 78.53 140.22"/><polyline class="cls-3" points="79.19 136.76 81.86 131.71 81.87 131.7"/><polyline class="cls-3" points="79.2 166.71 78.53 163.99 78.53 163.99"/><line class="cls-3" x1="78.53" y1="163.99" x2="78.53" y2="163.3"/><polyline class="cls-3" points="81.41 131.44 81.41 131.44 78.73 136.49"/><line class="cls-3" x1="88.88" y1="127.12" x2="81.41" y2="131.44"/><polyline class="cls-3" points="78.86 166.93 79.32 167.19 79.32 167.19"/><line class="cls-3" x1="79.32" y1="167.19" x2="79.32" y2="167.19"/><polyline class="cls-3" points="78.75 166.45 78.07 163.72 78.07 163.72"/><polyline class="cls-3" points="78.07 139.96 78.07 139.96 78.07 163.56"/><line class="cls-3" x1="78.75" y1="166.45" x2="78.86" y2="166.92"/><line class="cls-3" x1="78.86" y1="166.92" x2="78.87" y2="166.93"/><line class="cls-3" x1="78.07" y1="163.56" x2="78.07" y2="163.72"/><line class="cls-3" x1="78.07" y1="139.96" x2="78.73" y2="136.49"/><line class="cls-3" x1="94.73" y1="123.75" x2="94.73" y2="124.28"/><line class="cls-3" x1="83.05" y1="169.34" x2="82.59" y2="169.08"/><line class="cls-3" x1="98.45" y1="125.9" x2="98.45" y2="125.9"/><line class="cls-3" x1="82.47" y1="168.6" x2="81.79" y2="165.88"/><polyline class="cls-3" points="88.88 133.2 86.67 134.48 86.67 134.48"/><polyline class="cls-3" points="83.99 139.53 83.33 143 83.33 143"/><polyline class="cls-3" points="83.99 139.53 83.99 139.53 86.67 134.48"/><polyline class="cls-3" points="83.33 166.76 83.33 166.76 83.33 160.53"/><line class="cls-3" x1="85.13" y1="133.59" x2="82.45" y2="138.64"/><line class="cls-3" x1="99.53" y1="127.05" x2="88.88" y2="133.2"/><polyline class="cls-3" points="88.88 131.42 85.13 133.59 85.13 133.59"/><polyline class="cls-3" points="81.79 142.11 81.79 142.11 82.45 138.64"/><line class="cls-3" x1="88.88" y1="131.42" x2="98.45" y2="125.9"/><polyline class="cls-3" points="83.99 169.48 85.13 170.54 83.05 169.34"/><polyline class="cls-3" points="83.99 169.48 83.99 169.47 83.33 166.76"/><line class="cls-3" x1="81.79" y1="142.11" x2="81.79" y2="161.41"/><line class="cls-3" x1="83.33" y1="143" x2="83.33" y2="160.53"/><line class="cls-3" x1="82.45" y1="138.64" x2="82.45" y2="138.64"/><polyline class="cls-3" points="81.79 165.88 81.79 165.87 81.79 161.41"/><line class="cls-3" x1="82.59" y1="169.08" x2="82.47" y2="168.6"/><line class="cls-3" x1="99.53" y1="127.05" x2="98.45" y2="126.43"/><line class="cls-3" x1="98.45" y1="125.9" x2="88.88" y2="131.42"/><line class="cls-3" x1="82.47" y1="168.6" x2="82.59" y2="169.08"/><polyline class="cls-3" points="82.59 169.07 83.05 169.34 83.05 169.34"/><line class="cls-3" x1="82.45" y1="138.64" x2="82.45" y2="138.64"/><line class="cls-3" x1="83.05" y1="169.34" x2="82.93" y2="168.86"/><polyline class="cls-3" points="82.25 142.38 82.25 142.38 82.25 161.15"/><line class="cls-3" x1="98.45" y1="125.9" x2="98.45" y2="125.9"/><polyline class="cls-3" points="82.91 138.91 82.91 138.91 82.25 142.38"/><line class="cls-3" x1="82.47" y1="168.6" x2="81.79" y2="165.88"/><line class="cls-3" x1="81.79" y1="142.11" x2="81.79" y2="161.41"/><line class="cls-3" x1="82.25" y1="166.14" x2="82.25" y2="161.15"/><polyline class="cls-3" points="82.93 168.86 82.25 166.14 82.25 166.14"/><polyline class="cls-3" points="88.88 131.42 85.13 133.59 85.13 133.59"/><line class="cls-3" x1="85.13" y1="133.59" x2="82.45" y2="138.64"/><polyline class="cls-3" points="81.79 142.11 81.79 142.11 82.45 138.64"/><polyline class="cls-3" points="85.59 133.86 85.59 133.86 82.91 138.91"/><line class="cls-3" x1="85.59" y1="133.86" x2="88.88" y2="131.96"/><line class="cls-3" x1="98.45" y1="126.43" x2="88.88" y2="131.96"/><polyline class="cls-3" points="81.79 165.88 81.79 165.87 81.79 161.41"/><line class="cls-3" x1="98.45" y1="125.9" x2="98.45" y2="125.9"/><line class="cls-3" x1="98.45" y1="126.43" x2="98.45" y2="125.9"/></svg>