<svg id="Capa_1" data-name="Capa 1" xmlns="http://www.w3.org/2000/svg" viewBox="0 0 180 180"><defs><style>.cls-1,.cls-2{fill:#fff;stroke:#72408d;stroke-width:0.5px;}.cls-1{stroke-miterlimit:10;}.cls-2{stroke-linecap:round;stroke-linejoin:round;}</style></defs><g id="_2" data-name="2"><path class="cls-1" d="M72.37,14.1h0l2.53-1.46h0a1.43,1.43,0,0,1,1.42.14L141.2,50.16a5.41,5.41,0,0,1,2.28,4.34l-.1,56.92a2.07,2.07,0,0,1-.74,1.8h0l-2.35,1.34-.61.26"/><line class="cls-1" x1="134.34" y1="111.57" x2="138.04" y2="113.84"/><polyline class="cls-1" points="139.68 114.83 139.67 114.84 138.04 113.84"/><path class="cls-1" d="M134.34,111.57l-58-35.52a5.47,5.47,0,0,1-2.28-4.34l0-55.21-1.7-2.4"/><path class="cls-1" d="M72.65,76A4.15,4.15,0,0,0,74,77.42l64.35,37.07"/><path class="cls-1" d="M139.68,114.83a.84.84,0,0,1-.81,0l-.52-.3"/><path class="cls-1" d="M72.37,14.1a1.39,1.39,0,0,1,1.58.05l64.87,37.37a5.43,5.43,0,0,1,2.28,4.34l0,55.53c0,1.29-.6,3-1.46,3.44"/><path class="cls-1" d="M72.37,14.1a2.12,2.12,0,0,0-.69,1.77l0,57.21a5.7,5.7,0,0,0,.93,3"/><path class="cls-1" d="M138.29,108.12l0-52.22a2.45,2.45,0,0,0-1-1.92L75.48,18.4c-.56-.32-1,0-1,.76l0,52.22a2.42,2.42,0,0,0,1,1.92l61.76,35.58C137.84,109.2,138.29,108.86,138.29,108.12Z"/><path class="cls-1" d="M105.65,34.16a1.42,1.42,0,0,0,.58,1.12l.26.15c.32.18.58,0,.58-.45a1.38,1.38,0,0,0-.58-1.11l-.26-.15C105.91,33.53,105.65,33.73,105.65,34.16Z"/><path class="cls-1" d="M20.13,104.74h0v2.44h0a1.45,1.45,0,0,0,.84,1.29l64.87,37.36a5.42,5.42,0,0,0,4.9-.21l46.44-26.87a2,2,0,0,0,1.19-1.6h0V114.6h0"/><path class="cls-1" d="M20.13,104.74l2.38.2L67.75,78.76a5.46,5.46,0,0,1,4.9-.21l62,35.74,3.65.31"/><path class="cls-1" d="M138.35,114.6v-.11"/><line class="cls-1" x1="134.34" y1="111.57" x2="72.65" y2="76.04"/><path class="cls-1" d="M134.34,111.57l3.18,1.83a1.92,1.92,0,0,1,.52.44"/><path class="cls-1" d="M72.65,76h0a5.42,5.42,0,0,0-4.9.21L21.31,103.12a2,2,0,0,0-1.18,1.62"/><path class="cls-1" d="M20.13,104.74A1.44,1.44,0,0,0,21,106l64.87,37.37a5.46,5.46,0,0,0,4.9-.21l46.44-26.88a2,2,0,0,0,1.18-1.63"/><path class="cls-1" d="M138,113.84a1.27,1.27,0,0,1,.31.65"/><path class="cls-1" d="M69.94,78.54a2.06,2.06,0,0,1,1,.22l61.77,35.57"/><path class="cls-1" d="M42.72,95.15a.74.74,0,0,1-.3-.28"/><path class="cls-1" d="M133.06,114.61a.55.55,0,0,1-.09.66"/><line class="cls-1" x1="43.03" y1="95.33" x2="42.72" y2="95.15"/><path class="cls-1" d="M133.06,114.61a1,1,0,0,0-.3-.28"/><path class="cls-1" d="M42.35,94.55a.52.52,0,0,0,.07.32"/><path class="cls-1" d="M68.83,78.85l-26,15.05a1.07,1.07,0,0,0-.47.48"/><path class="cls-1" d="M132.6,115.58l-25.95,15.06a2.42,2.42,0,0,1-2.17.09L43,95.33"/><path class="cls-1" d="M42.35,94.55a.48.48,0,0,1,0-.17"/><path class="cls-1" d="M62.49,109.45l17.1,9.85.09.08"/><path class="cls-1" d="M79.51,120c.3-.17.35-.42.17-.59"/><path class="cls-1" d="M64.6,128.08l-.08,0L47.41,118.2"/><path class="cls-1" d="M61.34,109.5l-13.84,8a.49.49,0,0,0-.28.34"/><path class="cls-1" d="M68.69,126.24l-3,1.76a1.3,1.3,0,0,1-1.07.08"/><line class="cls-1" x1="68.69" y1="126.24" x2="79.1" y2="120.21"/><line class="cls-1" x1="79.51" y1="119.97" x2="79.1" y2="120.21"/><path class="cls-1" d="M69.94,78.54a2.06,2.06,0,0,1,1,.22l61.77,35.57"/><path class="cls-1" d="M133.06,114.61a1,1,0,0,0-.3-.28"/><path class="cls-1" d="M68.83,78.85l-26,15.05a1.07,1.07,0,0,0-.47.48"/><polyline class="cls-1" points="43.03 95.33 43.03 95.33 42.72 95.15"/><path class="cls-1" d="M42.72,95.15a.74.74,0,0,1-.3-.28"/><path class="cls-1" d="M132.6,115.58l-.16.09L71,80.28a2.4,2.4,0,0,0-2.16.09L43,95.33"/><path class="cls-1" d="M42.35,94.55a.52.52,0,0,0,.07.32"/><path class="cls-1" d="M133.06,114.61a.55.55,0,0,1-.09.66"/><path class="cls-1" d="M42.35,94.55a.48.48,0,0,1,0-.17"/><path class="cls-1" d="M68.83,78.85a2.46,2.46,0,0,1,1.11-.31"/><path class="cls-1" d="M133,115.27a1.17,1.17,0,0,1-.37.31"/><path class="cls-1" d="M62.49,109.45l17.1,9.85a.34.34,0,0,1,.09.08"/><path class="cls-1" d="M61.34,109.5l-13.84,8a.49.49,0,0,0-.28.34"/><path class="cls-1" d="M79.1,120.21l-16.61-9.57a1.27,1.27,0,0,0-1.15,0l-9.73,5.64"/><line class="cls-1" x1="47.94" y1="118.46" x2="51.61" y2="116.33"/><polyline class="cls-1" points="47.94 118.46 47.91 118.48 47.41 118.19"/><polyline class="cls-1" points="79.51 119.97 79.1 120.21 79.1 120.21"/><path class="cls-1" d="M79.51,120c.3-.17.35-.42.17-.59"/><path class="cls-1" d="M61.34,109.5a1.27,1.27,0,0,1,1.15,0"/><path class="cls-1" d="M47.41,118.2a.34.34,0,0,1-.19-.33"/><path class="cls-1" d="M64.6,128.08h0l-16.41-9.45-.24-.16"/><path class="cls-1" d="M51.61,116.33a.59.59,0,0,0-.37-.07l-3.42,2c-.06,0,0,.12.12.22"/><path class="cls-1" d="M68.69,126.24a.87.87,0,0,0-.37-.32l-16.41-9.45a1.35,1.35,0,0,0-.3-.14"/><path class="cls-1" d="M68.69,126.24s0,.05,0,.06l-3.43,2c-.08.05-.37,0-.65-.2"/><path class="cls-2" d="M67,83.05a.46.46,0,0,0,.15.76l1.73,1a1.9,1.9,0,0,0,1.7-.07l.71-.41c.46-.27.52-.65.19-.91"/><path class="cls-2" d="M71.45,83.42s0,0-.07-.07l-1.74-1a1.9,1.9,0,0,0-1.7.07l-.7.41a1.28,1.28,0,0,0-.27.22"/><path class="cls-2" d="M75.77,85.91a.46.46,0,0,0-.07-.07l-1.74-1a1.9,1.9,0,0,0-1.7.07l-.7.41a.89.89,0,0,0-.27.22"/><path class="cls-2" d="M71.29,85.54a.46.46,0,0,0,.15.76l1.73,1a1.9,1.9,0,0,0,1.7-.07l.71-.41c.46-.27.52-.66.19-.91"/><path class="cls-2" d="M80.09,88.39,80,88.33l-1.74-1a1.9,1.9,0,0,0-1.7.07l-.7.41a.76.76,0,0,0-.27.22"/><path class="cls-2" d="M75.61,88a.46.46,0,0,0,.15.76l1.73,1a1.87,1.87,0,0,0,1.7-.08l.7-.4c.47-.27.53-.66.2-.92"/><path class="cls-2" d="M84.41,90.88s0,0-.08-.07l-1.73-1a1.9,1.9,0,0,0-1.7.08l-.7.4a.9.9,0,0,0-.27.23"/><path class="cls-2" d="M79.93,90.52a.46.46,0,0,0,.15.76l1.73,1a1.86,1.86,0,0,0,1.7-.07l.7-.41c.47-.26.53-.65.2-.91"/><path class="cls-2" d="M84.24,93a.45.45,0,0,0,.16.75l1.73,1a1.9,1.9,0,0,0,1.7-.07l.7-.41c.47-.27.53-.65.2-.91"/><path class="cls-2" d="M88.73,93.37s0-.05-.08-.07l-1.73-1a1.9,1.9,0,0,0-1.7.07l-.7.41a1.11,1.11,0,0,0-.28.23"/><path class="cls-2" d="M93.05,95.86s0,0-.08-.07l-1.73-1a1.9,1.9,0,0,0-1.7.07l-.7.41a1.09,1.09,0,0,0-.28.22"/><path class="cls-2" d="M88.56,95.49a.46.46,0,0,0,.15.76l1.74,1a1.9,1.9,0,0,0,1.7-.07l.7-.41c.47-.27.53-.66.2-.91"/><path class="cls-2" d="M92.88,98a.47.47,0,0,0,.15.76l1.74,1a1.9,1.9,0,0,0,1.7-.07l.7-.41c.46-.27.53-.66.2-.92"/><path class="cls-2" d="M97.37,98.34a.55.55,0,0,0-.08-.06l-1.73-1a1.9,1.9,0,0,0-1.7.07l-.71.41a1,1,0,0,0-.27.22"/><path class="cls-2" d="M101.69,100.83s0,0-.08-.07l-1.73-1a1.86,1.86,0,0,0-1.7.07l-.71.4a1.25,1.25,0,0,0-.27.23"/><path class="cls-2" d="M97.2,100.47a.47.47,0,0,0,.15.76l1.74,1a1.87,1.87,0,0,0,1.7-.07l.7-.4c.46-.27.53-.66.2-.92"/><path class="cls-2" d="M101.52,103a.46.46,0,0,0,.15.75l1.74,1a1.9,1.9,0,0,0,1.7-.07l.7-.41c.46-.26.53-.65.19-.91"/><path class="cls-2" d="M106,103.32l-.07-.07-1.73-1a1.9,1.9,0,0,0-1.7.07l-.71.41a1.25,1.25,0,0,0-.27.23"/><path class="cls-2" d="M110.32,105.81l-.07-.07-1.73-1a1.92,1.92,0,0,0-1.71.07l-.7.41a1,1,0,0,0-.27.22"/><path class="cls-2" d="M105.84,105.44a.46.46,0,0,0,.15.76l1.73,1a1.9,1.9,0,0,0,1.7-.07l.71-.41c.46-.27.52-.66.19-.91"/><path class="cls-2" d="M114.77,108.37a.46.46,0,0,0-.07-.07l-1.73-1a1.9,1.9,0,0,0-1.7.08l-.71.4a1.25,1.25,0,0,0-.27.23"/><path class="cls-2" d="M110.29,108a.47.47,0,0,0,.15.76l1.74,1a1.87,1.87,0,0,0,1.7-.07l.7-.41c.46-.26.53-.65.19-.91"/><path class="cls-2" d="M119.09,110.86a.46.46,0,0,0-.07-.07l-1.73-1a1.9,1.9,0,0,0-1.7.07l-.71.41a1.05,1.05,0,0,0-.27.23"/><path class="cls-2" d="M114.61,110.5a.46.46,0,0,0,.15.75l1.73,1a1.9,1.9,0,0,0,1.7-.07l.71-.41c.46-.27.52-.65.19-.91"/><path class="cls-2" d="M123.41,113.35s0,0-.07-.07l-1.74-1a1.9,1.9,0,0,0-1.7.07l-.7.41a1,1,0,0,0-.27.22"/><path class="cls-2" d="M118.93,113a.46.46,0,0,0,.15.76l1.73,1a1.9,1.9,0,0,0,1.7-.07l.71-.41c.46-.27.52-.66.19-.91"/><path class="cls-2" d="M127.73,115.83l-.07-.06-1.74-1a1.9,1.9,0,0,0-1.7.07l-.7.41a.86.86,0,0,0-.27.22"/><path class="cls-2" d="M123.25,115.47a.46.46,0,0,0,.15.76l1.73,1a1.87,1.87,0,0,0,1.7-.08l.71-.4c.46-.27.52-.66.19-.92"/><path class="cls-2" d="M61.92,85.93a.45.45,0,0,0,.15.75l1.82,1a1.86,1.86,0,0,0,1.7-.07l2.1-1.21c.47-.27.53-.66.2-.92"/><path class="cls-2" d="M61.92,85.93a.9.9,0,0,1,.27-.23l2.1-1.21a1.9,1.9,0,0,1,1.7-.08l1.82,1s0,.05.08.07"/><path class="cls-2" d="M66.24,88.41a.46.46,0,0,0,.15.76l1.82,1a1.9,1.9,0,0,0,1.7-.07L72,88.93c.46-.26.53-.65.2-.91"/><path class="cls-2" d="M72.21,88s0,0-.08-.07l-1.82-1a1.9,1.9,0,0,0-1.7.07l-2.1,1.22a1.06,1.06,0,0,0-.27.22"/><path class="cls-2" d="M70.6,90.93a.47.47,0,0,0,.15.76l1.82,1a1.9,1.9,0,0,0,1.7-.08l2.1-1.21c.47-.27.53-.66.2-.92"/><path class="cls-2" d="M76.57,90.53s0,0-.08-.07l-1.82-1a1.87,1.87,0,0,0-1.7.07l-2.1,1.21a1.05,1.05,0,0,0-.27.23"/><path class="cls-2" d="M74.92,93.42a.45.45,0,0,0,.15.75l1.82,1a1.9,1.9,0,0,0,1.7-.07l2.1-1.22c.47-.26.53-.65.2-.91"/><path class="cls-2" d="M80.89,93s0,0-.08-.07L79,91.9a1.87,1.87,0,0,0-1.7.08l-2.1,1.21a1.05,1.05,0,0,0-.27.23"/><path class="cls-2" d="M85.21,95.51s0-.05-.08-.07l-1.82-1a1.9,1.9,0,0,0-1.7.07l-2.1,1.22a.89.89,0,0,0-.27.22"/><path class="cls-2" d="M79.24,95.9a.46.46,0,0,0,.15.76l1.82,1a1.9,1.9,0,0,0,1.7-.07L85,96.42c.47-.27.53-.65.2-.91"/><path class="cls-2" d="M83.6,98.42a.46.46,0,0,0,.15.75l1.82,1a1.9,1.9,0,0,0,1.7-.07l2.11-1.22c.46-.26.52-.65.19-.91"/><path class="cls-2" d="M89.57,98s0,0-.07-.07l-1.83-1A1.87,1.87,0,0,0,86,97l-2.1,1.21a1.25,1.25,0,0,0-.27.23"/><path class="cls-2" d="M87.92,100.9a.46.46,0,0,0,.15.76l1.82,1a1.9,1.9,0,0,0,1.7-.07l2.1-1.22c.47-.27.53-.65.2-.91"/><path class="cls-2" d="M93.89,100.51s0-.05-.07-.07l-1.83-1a1.9,1.9,0,0,0-1.7.07l-2.1,1.22a1,1,0,0,0-.27.22"/><path class="cls-2" d="M92.28,103.42a.46.46,0,0,0,.15.75l1.83,1a1.87,1.87,0,0,0,1.7-.07l2.1-1.21c.46-.27.52-.66.19-.92"/><path class="cls-2" d="M98.25,103s0,0-.07-.07l-1.82-1a1.9,1.9,0,0,0-1.7.08l-2.11,1.21a1.25,1.25,0,0,0-.27.23"/><path class="cls-2" d="M96.6,105.9a.46.46,0,0,0,.15.76l1.82,1a1.9,1.9,0,0,0,1.7-.07l2.11-1.22c.46-.26.52-.65.19-.91"/><path class="cls-2" d="M102.57,105.51s0-.05-.07-.07l-1.82-1a1.92,1.92,0,0,0-1.71.07l-2.1,1.22a1.6,1.6,0,0,0-.27.22"/><path class="cls-2" d="M100.92,108.39a.47.47,0,0,0,.15.76l1.82,1a1.9,1.9,0,0,0,1.7-.07l2.11-1.22c.46-.27.52-.66.19-.91"/><path class="cls-2" d="M106.89,108s0,0-.07-.07L105,106.88a1.9,1.9,0,0,0-1.7.07l-2.1,1.22a1.23,1.23,0,0,0-.27.22"/><path class="cls-2" d="M111.25,110.51l-.07-.07-1.82-1a1.9,1.9,0,0,0-1.7.07l-2.1,1.22a1.11,1.11,0,0,0-.28.23"/><path class="cls-2" d="M105.28,110.91a.46.46,0,0,0,.15.75l1.83,1a1.9,1.9,0,0,0,1.7-.07l2.1-1.22c.46-.26.52-.65.19-.91"/><path class="cls-2" d="M109.6,113.39a.46.46,0,0,0,.15.76l1.83,1a1.9,1.9,0,0,0,1.7-.07l2.1-1.22c.46-.27.52-.65.19-.91"/><path class="cls-2" d="M115.57,113s0,0-.07-.07l-1.82-1.05a1.9,1.9,0,0,0-1.7.07l-2.11,1.22a1.23,1.23,0,0,0-.27.22"/><path class="cls-2" d="M113.92,115.88a.47.47,0,0,0,.15.76l1.82,1a1.9,1.9,0,0,0,1.7-.07l2.11-1.22c.46-.27.52-.66.19-.91"/><path class="cls-2" d="M119.89,115.49a.46.46,0,0,0-.07-.07l-1.82-1a1.9,1.9,0,0,0-1.7.07l-2.11,1.22a1,1,0,0,0-.27.22"/><path class="cls-2" d="M124.25,118l-.07-.07-1.82-1.05a1.9,1.9,0,0,0-1.7.07l-2.1,1.22a1.09,1.09,0,0,0-.28.22"/><path class="cls-2" d="M118.28,118.39a.46.46,0,0,0,.16.76l1.82,1a1.9,1.9,0,0,0,1.7-.07l2.1-1.22c.46-.27.53-.65.19-.91"/><path class="cls-2" d="M56.93,88.88a.47.47,0,0,0,.15.76l1.83,1a1.87,1.87,0,0,0,1.7-.08l2.1-1.21c.46-.27.52-.66.19-.91"/><path class="cls-2" d="M56.93,88.88a1,1,0,0,1,.27-.22l2.11-1.22a1.9,1.9,0,0,1,1.7-.07l1.82,1a.46.46,0,0,1,.07.07"/><path class="cls-2" d="M61.25,91.37a1.25,1.25,0,0,1,.27-.23l2.1-1.21a1.89,1.89,0,0,1,1.71-.07l1.82,1s0,0,.07.07"/><path class="cls-2" d="M61.25,91.37a.47.47,0,0,0,.15.76l1.82,1a1.86,1.86,0,0,0,1.7-.07L67,91.89c.46-.27.52-.66.19-.92"/><path class="cls-2" d="M65.61,93.88a.91.91,0,0,1,.28-.22L68,92.44a1.9,1.9,0,0,1,1.7-.07l1.82,1a.23.23,0,0,1,.07.07"/><path class="cls-2" d="M65.61,93.88a.46.46,0,0,0,.16.76l1.82,1a1.9,1.9,0,0,0,1.7-.07l2.1-1.22c.46-.27.53-.66.19-.91"/><path class="cls-2" d="M69.93,96.37a1.11,1.11,0,0,1,.28-.23l2.1-1.21a1.86,1.86,0,0,1,1.7-.07l1.82,1s0,0,.07.06"/><path class="cls-2" d="M69.93,96.37a.47.47,0,0,0,.15.76l1.83,1.05a1.9,1.9,0,0,0,1.7-.08l2.1-1.21c.46-.27.52-.66.19-.92"/><path class="cls-2" d="M74.25,98.86a1.25,1.25,0,0,1,.27-.23l2.11-1.21a1.87,1.87,0,0,1,1.7-.08l1.82,1s0,0,.07.07"/><path class="cls-2" d="M74.25,98.86a.46.46,0,0,0,.15.75l1.83,1a1.9,1.9,0,0,0,1.7-.07L80,99.37c.46-.26.52-.65.19-.91"/><path class="cls-2" d="M78.62,101.37a.46.46,0,0,0,.15.76l1.82,1.05a1.9,1.9,0,0,0,1.7-.08l2.1-1.21c.46-.27.53-.66.2-.92"/><path class="cls-2" d="M78.62,101.37a.9.9,0,0,1,.27-.23L81,99.93a1.9,1.9,0,0,1,1.7-.07l1.82,1,.08.06"/><path class="cls-2" d="M82.93,103.86a.45.45,0,0,0,.16.75l1.82,1a1.9,1.9,0,0,0,1.7-.07l2.1-1.21c.46-.27.53-.66.19-.92"/><path class="cls-2" d="M82.93,103.86a1.11,1.11,0,0,1,.28-.23l2.1-1.21a1.9,1.9,0,0,1,1.7-.08l1.82,1a.46.46,0,0,1,.07.07"/><path class="cls-2" d="M87.3,106.37a.46.46,0,0,0,.15.76l1.82,1.05a1.87,1.87,0,0,0,1.7-.08l2.1-1.21c.47-.27.53-.66.2-.91"/><path class="cls-2" d="M87.3,106.37a.86.86,0,0,1,.27-.22l2.1-1.22a1.9,1.9,0,0,1,1.7-.07l1.82,1a.27.27,0,0,1,.08.07"/><path class="cls-2" d="M91.62,108.86a.45.45,0,0,0,.15.75l1.82,1a1.86,1.86,0,0,0,1.7-.07l2.1-1.21c.46-.27.53-.66.2-.92"/><path class="cls-2" d="M91.62,108.86a.9.9,0,0,1,.27-.23l2.1-1.21a1.9,1.9,0,0,1,1.7-.08l1.82,1s0,0,.08.07"/><path class="cls-2" d="M95.94,111.34a.46.46,0,0,0,.15.76l1.82,1.05a1.9,1.9,0,0,0,1.7-.07l2.1-1.22c.46-.26.53-.65.2-.91"/><path class="cls-2" d="M95.94,111.34a1.06,1.06,0,0,1,.27-.22l2.1-1.22a1.9,1.9,0,0,1,1.7-.07l1.82,1s0,.05.08.07"/><path class="cls-2" d="M100.3,113.86a.46.46,0,0,0,.15.76l1.82,1a1.9,1.9,0,0,0,1.7-.08l2.1-1.21c.47-.27.53-.66.2-.92"/><path class="cls-2" d="M100.3,113.86a1.05,1.05,0,0,1,.27-.23l2.1-1.21a1.87,1.87,0,0,1,1.7-.07l1.82,1s0,0,.08.07"/><path class="cls-2" d="M104.62,116.35a1.05,1.05,0,0,1,.27-.23l2.1-1.21a1.87,1.87,0,0,1,1.7-.08l1.82,1s0,.05.08.07"/><path class="cls-2" d="M104.62,116.35a.45.45,0,0,0,.15.75l1.82,1.05a1.9,1.9,0,0,0,1.7-.07l2.1-1.22c.47-.26.53-.65.2-.91"/><path class="cls-2" d="M108.94,118.83a.46.46,0,0,0,.15.76l1.82,1a1.9,1.9,0,0,0,1.7-.07l2.1-1.22c.47-.27.53-.65.2-.91"/><path class="cls-2" d="M114.91,118.44s0,0-.08-.07L113,117.32a1.9,1.9,0,0,0-1.7.07l-2.1,1.22a.89.89,0,0,0-.27.22"/><path class="cls-2" d="M113.3,121.35a.46.46,0,0,0,.15.75l1.82,1.05a1.9,1.9,0,0,0,1.7-.07l2.1-1.22c.47-.26.53-.65.2-.91"/><path class="cls-2" d="M113.3,121.35a1.25,1.25,0,0,1,.27-.23l2.1-1.21a1.87,1.87,0,0,1,1.7-.08l1.83,1s0,.05.07.07"/><path class="cls-2" d="M51.72,91.83A1.11,1.11,0,0,1,52,91.6l2.1-1.21a1.87,1.87,0,0,1,1.7-.08l6.1,3.51s0,.05.07.07"/><path class="cls-2" d="M51.72,91.83a.45.45,0,0,0,.16.75L58,96.1a1.9,1.9,0,0,0,1.7-.08l2.1-1.21c.47-.27.53-.66.2-.92"/><path class="cls-2" d="M60.41,96.83a.45.45,0,0,0,.15.75l1.82,1a1.9,1.9,0,0,0,1.7-.07l2.1-1.21c.47-.27.53-.66.2-.92"/><path class="cls-2" d="M60.41,96.83a.9.9,0,0,1,.27-.23l2.1-1.21a1.87,1.87,0,0,1,1.7-.08l1.82,1s0,0,.08.07"/><path class="cls-2" d="M64.73,99.31a.89.89,0,0,1,.27-.22l2.1-1.22a1.9,1.9,0,0,1,1.7-.07l1.82,1s0,.05.08.07"/><path class="cls-2" d="M64.73,99.31a.46.46,0,0,0,.15.76l1.82,1.05a1.9,1.9,0,0,0,1.7-.07l2.1-1.22c.46-.27.53-.65.2-.91"/><path class="cls-2" d="M69.05,101.8a.46.46,0,0,0,.15.76l1.82,1a1.9,1.9,0,0,0,1.7-.07l2.1-1.22c.46-.27.53-.66.2-.91"/><path class="cls-2" d="M69.05,101.8a.89.89,0,0,1,.27-.22l2.1-1.22a1.9,1.9,0,0,1,1.7-.07l1.82,1s0,0,.08.07"/><path class="cls-2" d="M73.41,104.31a1.28,1.28,0,0,1,.27-.22l2.1-1.22a1.9,1.9,0,0,1,1.7-.07l1.82,1s0,.05.08.07"/><path class="cls-2" d="M73.41,104.31a.46.46,0,0,0,.15.76l1.82,1.05a1.9,1.9,0,0,0,1.7-.07l2.1-1.22c.47-.26.53-.65.2-.91"/><path class="cls-2" d="M77.73,106.8a.89.89,0,0,1,.27-.22l2.1-1.22a1.9,1.9,0,0,1,1.7-.07l1.82,1s0,0,.08.07"/><path class="cls-2" d="M77.73,106.8a.46.46,0,0,0,.15.76l1.82,1a1.9,1.9,0,0,0,1.7-.07l2.1-1.22c.47-.27.53-.66.2-.91"/><path class="cls-2" d="M82.09,109.32a1.25,1.25,0,0,1,.27-.23l2.1-1.21a1.87,1.87,0,0,1,1.7-.08l1.83,1s0,.05.07.07"/><path class="cls-2" d="M82.09,109.32a.46.46,0,0,0,.15.75l1.82,1.05a1.9,1.9,0,0,0,1.7-.07l2.11-1.22c.46-.26.52-.65.19-.91"/><path class="cls-2" d="M86.41,111.8a1,1,0,0,1,.27-.22l2.1-1.22a1.9,1.9,0,0,1,1.7-.07l1.83,1s0,0,.07.07"/><path class="cls-2" d="M86.41,111.8a.46.46,0,0,0,.15.76l1.82,1a1.9,1.9,0,0,0,1.7-.07l2.1-1.22c.47-.27.53-.65.2-.91"/><path class="cls-2" d="M90.73,114.29a.86.86,0,0,1,.27-.22l2.1-1.22a1.9,1.9,0,0,1,1.7-.07l1.82,1a.27.27,0,0,1,.08.07"/><path class="cls-2" d="M90.73,114.29a.46.46,0,0,0,.15.76l1.82,1a1.9,1.9,0,0,0,1.7-.07l2.1-1.22c.47-.27.53-.66.2-.91"/><path class="cls-2" d="M95.09,116.8a1.23,1.23,0,0,1,.27-.22l2.1-1.22a1.92,1.92,0,0,1,1.71-.07l1.82,1s0,0,.07.07"/><path class="cls-2" d="M95.09,116.8a.46.46,0,0,0,.15.76l1.82,1a1.9,1.9,0,0,0,1.7-.07l2.11-1.22c.46-.27.52-.65.19-.91"/><path class="cls-2" d="M99.41,119.29a1,1,0,0,1,.27-.22l2.1-1.22a1.9,1.9,0,0,1,1.7-.07l1.83,1s0,0,.07.07"/><path class="cls-2" d="M99.41,119.29a.47.47,0,0,0,.15.76l1.82,1a1.9,1.9,0,0,0,1.7-.07l2.11-1.22c.46-.27.52-.66.19-.91"/><path class="cls-2" d="M103.73,121.78a.47.47,0,0,0,.15.76l1.82,1a1.9,1.9,0,0,0,1.7-.08l2.1-1.21c.47-.27.53-.66.2-.92"/><path class="cls-2" d="M103.73,121.78a1.05,1.05,0,0,1,.27-.23l2.1-1.21a1.9,1.9,0,0,1,1.7-.07l1.83,1,.07.06"/><path class="cls-2" d="M103.05,127.21a.86.86,0,0,1,.27-.22l7.15-4.14a1.9,1.9,0,0,1,1.7-.07l1.82,1s0,0,.07.07"/><path class="cls-2" d="M103.05,127.21a.47.47,0,0,0,.15.76L105,129a1.9,1.9,0,0,0,1.7-.07l7.15-4.14c.46-.27.52-.66.19-.91"/><path class="cls-2" d="M46.68,94.74a1.23,1.23,0,0,1,.27-.22l2.1-1.22a1.92,1.92,0,0,1,1.71-.07l1.82,1s0,0,.07.07"/><path class="cls-2" d="M46.68,94.74a.46.46,0,0,0,.15.76l1.82,1a1.9,1.9,0,0,0,1.7-.07l2.11-1.22c.46-.27.52-.65.19-.91"/><path class="cls-2" d="M51,97.23a.47.47,0,0,0,.15.76L53,99a1.9,1.9,0,0,0,1.7-.07l2.11-1.22c.46-.27.52-.66.19-.91"/><path class="cls-2" d="M51,97.23a1.23,1.23,0,0,1,.27-.22l2.1-1.22a1.9,1.9,0,0,1,1.7-.07l1.83,1,.07.07"/><path class="cls-2" d="M55.36,99.75a1.11,1.11,0,0,1,.28-.23l2.1-1.22a1.9,1.9,0,0,1,1.7-.07l1.82,1a.46.46,0,0,1,.07.07"/><path class="cls-2" d="M55.36,99.75a.46.46,0,0,0,.15.75l1.83,1a1.9,1.9,0,0,0,1.7-.07l2.1-1.22c.46-.26.52-.65.19-.91"/><path class="cls-2" d="M59.68,102.23A1.23,1.23,0,0,1,60,102l2.11-1.22a1.9,1.9,0,0,1,1.7-.07l1.82,1,.07.07"/><path class="cls-2" d="M59.68,102.23a.46.46,0,0,0,.15.76L61.66,104a1.9,1.9,0,0,0,1.7-.07l2.1-1.22c.46-.27.52-.65.19-.91"/><path class="cls-2" d="M64,104.72a1,1,0,0,1,.27-.22l2.11-1.22a1.9,1.9,0,0,1,1.7-.07l14.86,8.56s0,0,.08.07"/><path class="cls-2" d="M64,104.72a.47.47,0,0,0,.15.76L79,114a1.9,1.9,0,0,0,1.7-.07l2.1-1.22c.46-.27.53-.65.2-.91"/><path class="cls-2" d="M81.37,114.72a.46.46,0,0,0,.15.76l1.82,1a1.9,1.9,0,0,0,1.7-.07l2.1-1.22c.46-.27.53-.66.2-.91"/><path class="cls-2" d="M81.37,114.72a.89.89,0,0,1,.27-.22l2.1-1.22a1.9,1.9,0,0,1,1.7-.07l1.82,1.05s0,0,.08.07"/><path class="cls-2" d="M85.68,117.21a.46.46,0,0,0,.16.76l1.82,1a1.87,1.87,0,0,0,1.7-.08l2.1-1.21c.46-.27.53-.66.19-.91"/><path class="cls-2" d="M85.68,117.21A.91.91,0,0,1,86,117l2.1-1.22a1.9,1.9,0,0,1,1.7-.07l1.82,1a.23.23,0,0,1,.07.07"/><path class="cls-2" d="M90.05,119.72a1,1,0,0,1,.27-.22l2.1-1.22a1.9,1.9,0,0,1,1.7-.07l1.82,1.05s0,0,.08.07"/><path class="cls-2" d="M90.05,119.72a.46.46,0,0,0,.15.76l1.82,1a1.9,1.9,0,0,0,1.7-.07l2.1-1.22c.47-.27.53-.66.2-.91"/><path class="cls-2" d="M94.37,122.21a.76.76,0,0,1,.27-.22l2.1-1.22a1.9,1.9,0,0,1,1.7-.07l1.82,1a.27.27,0,0,1,.08.07"/><path class="cls-2" d="M94.37,122.21a.46.46,0,0,0,.15.76l1.82,1A1.9,1.9,0,0,0,98,124l2.1-1.22c.47-.27.53-.66.2-.91"/><path class="cls-2" d="M98.69,124.7a.46.46,0,0,0,.15.76l1.82,1a1.86,1.86,0,0,0,1.7-.07l2.1-1.21c.46-.27.53-.66.2-.92"/><path class="cls-2" d="M98.69,124.7a.9.9,0,0,1,.27-.23l2.1-1.21a1.86,1.86,0,0,1,1.7-.07l1.82,1s0,0,.08.07"/><path class="cls-2" d="M71.45,83.42a.86.86,0,0,1-.27.22l-.7.41a1.9,1.9,0,0,1-1.7.07l-1.74-1L67,83.05"/><path class="cls-2" d="M71.45,83.42a.46.46,0,0,0-.15-.76l-1.73-1a1.9,1.9,0,0,0-1.7.07l-.71.41c-.46.27-.52.66-.19.91"/><path class="cls-2" d="M75.77,85.91a1,1,0,0,1-.27.22l-.7.41a1.9,1.9,0,0,1-1.7.07l-1.74-1s0,0-.07-.07"/><path class="cls-2" d="M75.77,85.91a.46.46,0,0,0-.15-.76l-1.73-1a1.9,1.9,0,0,0-1.7.07l-.71.41c-.46.27-.52.66-.19.91"/><path class="cls-2" d="M80.09,88.39a.46.46,0,0,0-.15-.75l-1.74-1a1.9,1.9,0,0,0-1.7.07l-.7.41c-.46.27-.52.65-.19.91"/><path class="cls-2" d="M80.09,88.39a1.25,1.25,0,0,1-.27.23l-.71.41a1.9,1.9,0,0,1-1.7.07l-1.73-1a.46.46,0,0,1-.07-.07"/><path class="cls-2" d="M84.41,90.88a1.25,1.25,0,0,1-.27.23l-.71.4a1.9,1.9,0,0,1-1.7.08l-1.73-1s0,0-.07-.07"/><path class="cls-2" d="M84.41,90.88a.47.47,0,0,0-.15-.76l-1.74-1a1.87,1.87,0,0,0-1.7.07l-.7.4c-.46.27-.53.66-.19.92"/><path class="cls-2" d="M88.73,93.37a.47.47,0,0,0-.15-.76l-1.74-1a1.87,1.87,0,0,0-1.7.08l-.7.4c-.46.27-.53.66-.2.92"/><path class="cls-2" d="M88.73,93.37a1,1,0,0,1-.27.22l-.71.41a1.9,1.9,0,0,1-1.7.07l-1.73-1L84.24,93"/><path class="cls-2" d="M93.05,95.86a1.23,1.23,0,0,1-.27.22l-.71.41a1.9,1.9,0,0,1-1.7.07l-1.73-1a.27.27,0,0,1-.08-.07"/><path class="cls-2" d="M93.05,95.86a.46.46,0,0,0-.15-.76l-1.74-1a1.9,1.9,0,0,0-1.7.07l-.7.41c-.47.27-.53.66-.2.91"/><path class="cls-2" d="M97.37,98.34a1.11,1.11,0,0,1-.28.23l-.7.41a1.9,1.9,0,0,1-1.7.07l-1.73-1s0,0-.08-.07"/><path class="cls-2" d="M97.37,98.34a.46.46,0,0,0-.15-.75l-1.74-1a1.9,1.9,0,0,0-1.7.07l-.7.41c-.47.27-.53.65-.2.91"/><path class="cls-2" d="M101.69,100.83a.46.46,0,0,0-.16-.76l-1.73-1a1.86,1.86,0,0,0-1.7.07l-.7.41c-.47.26-.53.65-.2.91"/><path class="cls-2" d="M101.69,100.83a1.11,1.11,0,0,1-.28.23l-.7.4a1.9,1.9,0,0,1-1.7.08l-1.73-1s0-.05-.08-.07"/><path class="cls-2" d="M106,103.32a.76.76,0,0,1-.27.22l-.7.41a1.9,1.9,0,0,1-1.7.07l-1.74-1s0,0-.07-.06"/><path class="cls-2" d="M106,103.32a.46.46,0,0,0-.15-.76l-1.73-1a1.87,1.87,0,0,0-1.7.08l-.7.4c-.47.27-.53.66-.2.92"/><path class="cls-2" d="M110.32,105.81a.89.89,0,0,1-.27.22l-.7.41a1.9,1.9,0,0,1-1.7.07l-1.74-1-.07-.07"/><path class="cls-2" d="M110.32,105.81a.46.46,0,0,0-.15-.76l-1.73-1a1.9,1.9,0,0,0-1.7.07l-.71.41c-.46.27-.52.66-.19.91"/><path class="cls-2" d="M114.77,108.37a.9.9,0,0,1-.27.23l-.7.4a1.9,1.9,0,0,1-1.7.08l-1.74-1s0,0-.07-.07"/><path class="cls-2" d="M114.77,108.37a.46.46,0,0,0-.15-.76l-1.73-1a1.86,1.86,0,0,0-1.7.07l-.7.4c-.47.27-.53.66-.2.92"/><path class="cls-2" d="M119.09,110.86a.76.76,0,0,1-.27.22l-.7.41a1.9,1.9,0,0,1-1.7.07l-1.74-1-.07-.06"/><path class="cls-2" d="M119.09,110.86a.46.46,0,0,0-.15-.76l-1.73-1a1.87,1.87,0,0,0-1.7.08l-.71.4c-.46.27-.52.66-.19.92"/><path class="cls-2" d="M123.41,113.35a.46.46,0,0,0-.15-.76l-1.73-1a1.9,1.9,0,0,0-1.7.07l-.71.41c-.46.27-.52.66-.19.91"/><path class="cls-2" d="M123.41,113.35a1,1,0,0,1-.27.22l-.7.41a1.9,1.9,0,0,1-1.7.07l-1.74-1s0,0-.07-.07"/><path class="cls-2" d="M127.73,115.83a1.05,1.05,0,0,1-.27.23l-.7.41a1.9,1.9,0,0,1-1.7.07l-1.74-1s0-.05-.07-.07"/><path class="cls-2" d="M127.73,115.83a.45.45,0,0,0-.15-.75l-1.73-1a1.9,1.9,0,0,0-1.7.07l-.71.41c-.46.27-.52.65-.19.91"/><path class="cls-2" d="M67.89,85.53a.46.46,0,0,0-.15-.75l-1.83-1a1.87,1.87,0,0,0-1.7.07L62.11,85c-.46.27-.52.66-.19.92"/><path class="cls-2" d="M61.92,85.93s0,0,.07.07l1.82,1a1.9,1.9,0,0,0,1.7-.08l2.1-1.21a1.11,1.11,0,0,0,.28-.23"/><path class="cls-2" d="M72.21,88a.91.91,0,0,1-.28.22l-2.1,1.22a1.9,1.9,0,0,1-1.7.07l-1.82-1-.07-.07"/><path class="cls-2" d="M72.21,88a.46.46,0,0,0-.16-.76l-1.82-1.05a1.87,1.87,0,0,0-1.7.08l-2.1,1.21c-.46.27-.53.66-.19.91"/><path class="cls-2" d="M76.57,90.53a1.25,1.25,0,0,1-.27.23L74.2,92a1.9,1.9,0,0,1-1.7.08l-1.83-1s0,0-.07-.07"/><path class="cls-2" d="M76.57,90.53a.46.46,0,0,0-.15-.75l-1.82-1a1.9,1.9,0,0,0-1.7.07L70.79,90c-.46.27-.52.66-.19.92"/><path class="cls-2" d="M80.89,93a1.25,1.25,0,0,1-.27.23l-2.11,1.21a1.9,1.9,0,0,1-1.7.07l-1.82-1-.07-.06"/><path class="cls-2" d="M80.89,93a.47.47,0,0,0-.15-.76l-1.83-1.05a1.9,1.9,0,0,0-1.7.08l-2.1,1.21c-.46.27-.52.66-.19.92"/><path class="cls-2" d="M85.21,95.51a1,1,0,0,1-.27.22L82.83,97a1.9,1.9,0,0,1-1.7.07l-1.82-1a.46.46,0,0,1-.07-.07"/><path class="cls-2" d="M85.21,95.51a.47.47,0,0,0-.15-.76l-1.83-1a1.9,1.9,0,0,0-1.7.07L79.43,95c-.46.27-.52.66-.19.91"/><path class="cls-2" d="M89.57,98a.47.47,0,0,0-.15-.76L87.6,96.21a1.9,1.9,0,0,0-1.7.08L83.8,97.5c-.47.27-.53.66-.2.92"/><path class="cls-2" d="M89.57,98a1.05,1.05,0,0,1-.27.23l-2.1,1.21a1.87,1.87,0,0,1-1.7.07l-1.83-1s0,0-.07-.07"/><path class="cls-2" d="M93.89,100.51a.47.47,0,0,0-.15-.76l-1.82-1a1.9,1.9,0,0,0-1.7.07L88.11,100c-.46.27-.52.66-.19.91"/><path class="cls-2" d="M93.89,100.51a1,1,0,0,1-.27.22L91.52,102a1.9,1.9,0,0,1-1.7.07L88,101a.46.46,0,0,1-.07-.07"/><path class="cls-2" d="M98.25,103a.46.46,0,0,0-.15-.76l-1.82-1a1.86,1.86,0,0,0-1.7.07l-2.1,1.21c-.47.27-.53.66-.2.92"/><path class="cls-2" d="M98.25,103a1.05,1.05,0,0,1-.27.23l-2.1,1.21a1.9,1.9,0,0,1-1.7.08l-1.82-1.05s0,0-.08-.07"/><path class="cls-2" d="M102.57,105.51a.46.46,0,0,0-.15-.76l-1.82-1a1.87,1.87,0,0,0-1.7.08L96.8,105c-.47.27-.53.66-.2.91"/><path class="cls-2" d="M102.57,105.51a.86.86,0,0,1-.27.22L100.2,107a1.9,1.9,0,0,1-1.7.07l-1.82-1a.27.27,0,0,1-.08-.07"/><path class="cls-2" d="M106.89,108a.47.47,0,0,0-.15-.76l-1.82-1a1.9,1.9,0,0,0-1.7.07l-2.1,1.22c-.47.27-.53.66-.2.91"/><path class="cls-2" d="M106.89,108a1,1,0,0,1-.27.22l-2.1,1.22a1.9,1.9,0,0,1-1.7.07L101,108.46s0,0-.07-.07"/><path class="cls-2" d="M111.25,110.51a.9.9,0,0,1-.27.23l-2.1,1.21a1.9,1.9,0,0,1-1.7.07l-1.82-1a.55.55,0,0,1-.08-.06"/><path class="cls-2" d="M111.25,110.51a.46.46,0,0,0-.15-.76l-1.82-1a1.87,1.87,0,0,0-1.7.08l-2.1,1.21c-.46.27-.53.66-.2.92"/><path class="cls-2" d="M115.57,113a.46.46,0,0,0-.15-.76l-1.82-1a1.9,1.9,0,0,0-1.7.07l-2.1,1.22c-.47.27-.53.66-.2.91"/><path class="cls-2" d="M115.57,113a1,1,0,0,1-.27.22l-2.1,1.22a1.9,1.9,0,0,1-1.7.07l-1.82-1.05s-.05,0-.08-.07"/><path class="cls-2" d="M119.89,115.49a.46.46,0,0,0-.15-.76l-1.82-1a1.9,1.9,0,0,0-1.7.07l-2.1,1.22c-.47.27-.53.65-.2.91"/><path class="cls-2" d="M119.89,115.49a1,1,0,0,1-.27.22l-2.1,1.22a1.9,1.9,0,0,1-1.7.07L114,116s0,0-.08-.07"/><path class="cls-2" d="M124.25,118a.76.76,0,0,1-.27.22l-2.1,1.22a1.9,1.9,0,0,1-1.7.07l-1.82-1.05a.27.27,0,0,1-.08-.07"/><path class="cls-2" d="M124.25,118a.46.46,0,0,0-.15-.76l-1.82-1a1.9,1.9,0,0,0-1.7.07l-2.1,1.22c-.46.27-.53.66-.2.91"/><path class="cls-2" d="M56.93,88.88s0,.05.08.07l1.82,1a1.9,1.9,0,0,0,1.7-.07l2.1-1.22a1,1,0,0,0,.27-.22"/><path class="cls-2" d="M62.9,88.49a.46.46,0,0,0-.15-.76l-1.82-1a1.9,1.9,0,0,0-1.7.07L57.13,88c-.47.27-.53.65-.2.91"/><path class="cls-2" d="M61.25,91.37s0,0,.08.07l1.82,1a1.9,1.9,0,0,0,1.7-.08L67,91.2a1.05,1.05,0,0,0,.27-.23"/><path class="cls-2" d="M67.22,91a.45.45,0,0,0-.15-.75l-1.82-1a1.9,1.9,0,0,0-1.7.07l-2.1,1.21c-.47.27-.53.66-.2.92"/><path class="cls-2" d="M65.61,93.88s0,.05.08.07l1.82,1a1.9,1.9,0,0,0,1.7-.07l2.1-1.22a.89.89,0,0,0,.27-.22"/><path class="cls-2" d="M71.58,93.49a.46.46,0,0,0-.15-.76l-1.82-1a1.9,1.9,0,0,0-1.7.07L65.81,93c-.46.27-.53.65-.2.91"/><path class="cls-2" d="M75.9,96a.45.45,0,0,0-.15-.75l-1.82-1a1.9,1.9,0,0,0-1.7.07l-2.1,1.22c-.46.26-.53.65-.2.91"/><path class="cls-2" d="M69.93,96.37s0,0,.08.07l1.82,1a1.87,1.87,0,0,0,1.7-.08l2.1-1.21A.9.9,0,0,0,75.9,96"/><path class="cls-2" d="M74.25,98.86a.55.55,0,0,0,.08.06l1.82,1a1.87,1.87,0,0,0,1.7-.07L80,98.69a1.05,1.05,0,0,0,.27-.23"/><path class="cls-2" d="M80.22,98.46a.46.46,0,0,0-.15-.76l-1.82-1a1.9,1.9,0,0,0-1.7.08l-2.1,1.21c-.47.27-.53.66-.2.92"/><path class="cls-2" d="M84.59,101a.45.45,0,0,0-.16-.75l-1.82-1a1.9,1.9,0,0,0-1.7.07l-2.1,1.22c-.46.26-.53.65-.19.91"/><path class="cls-2" d="M78.62,101.37a.46.46,0,0,0,.07.07l1.82,1a1.87,1.87,0,0,0,1.7-.08l2.1-1.21a1.11,1.11,0,0,0,.28-.23"/><path class="cls-2" d="M82.93,103.86s0,0,.08.07l1.82,1a1.86,1.86,0,0,0,1.7-.07l2.1-1.21a.9.9,0,0,0,.27-.23"/><path class="cls-2" d="M88.9,103.46a.46.46,0,0,0-.15-.76l-1.82-1a1.87,1.87,0,0,0-1.7.07l-2.1,1.21c-.46.27-.53.66-.2.92"/><path class="cls-2" d="M87.3,106.37s0,0,.07.07l1.82,1a1.9,1.9,0,0,0,1.7-.07L93,106.2a1.6,1.6,0,0,0,.27-.22"/><path class="cls-2" d="M93.27,106a.46.46,0,0,0-.15-.76l-1.83-1a1.9,1.9,0,0,0-1.7.07l-2.1,1.22c-.46.26-.52.65-.19.91"/><path class="cls-2" d="M91.62,108.86l.07.07,1.82,1a1.9,1.9,0,0,0,1.7-.08l2.1-1.21a1.11,1.11,0,0,0,.28-.23"/><path class="cls-2" d="M97.59,108.46a.46.46,0,0,0-.15-.75l-1.83-1a1.87,1.87,0,0,0-1.7.07l-2.1,1.21c-.46.27-.52.66-.19.92"/><path class="cls-2" d="M95.94,111.34a.23.23,0,0,0,.07.07l1.82,1a1.9,1.9,0,0,0,1.7-.07l2.1-1.22a.91.91,0,0,0,.28-.22"/><path class="cls-2" d="M101.91,111a.46.46,0,0,0-.16-.76l-1.82-1a1.87,1.87,0,0,0-1.7.08l-2.1,1.21c-.46.27-.53.66-.19.91"/><path class="cls-2" d="M106.27,113.46a.46.46,0,0,0-.15-.75l-1.82-1a1.9,1.9,0,0,0-1.7.07l-2.11,1.21c-.46.27-.52.66-.19.92"/><path class="cls-2" d="M100.3,113.86s0,0,.07.07l1.83,1a1.87,1.87,0,0,0,1.7-.08l2.1-1.21a1.25,1.25,0,0,0,.27-.23"/><path class="cls-2" d="M110.59,116a.47.47,0,0,0-.15-.76l-1.83-1a1.9,1.9,0,0,0-1.7.08l-2.1,1.21c-.46.27-.52.66-.19.92"/><path class="cls-2" d="M104.62,116.35l.07.06,1.82,1a1.86,1.86,0,0,0,1.7-.07l2.11-1.21a1.25,1.25,0,0,0,.27-.23"/><path class="cls-2" d="M114.91,118.44a.91.91,0,0,1-.28.22l-2.1,1.22a1.9,1.9,0,0,1-1.7.07l-1.82-1-.07-.07"/><path class="cls-2" d="M114.91,118.44a.47.47,0,0,0-.15-.76l-1.83-1.05a1.9,1.9,0,0,0-1.7.07l-2.1,1.22c-.46.27-.52.66-.19.91"/><path class="cls-2" d="M119.27,121a.47.47,0,0,0-.15-.76l-1.82-1a1.9,1.9,0,0,0-1.7.08l-2.1,1.21c-.47.27-.53.66-.2.92"/><path class="cls-2" d="M113.3,121.35s0,.05.07.07l1.83,1a1.87,1.87,0,0,0,1.7-.07l2.1-1.21a1.25,1.25,0,0,0,.27-.23"/><path class="cls-2" d="M51.72,91.83a.55.55,0,0,0,.08.06l6.1,3.52a1.87,1.87,0,0,0,1.7-.08l2.1-1.21a1.25,1.25,0,0,0,.27-.23"/><path class="cls-2" d="M62,93.89a.46.46,0,0,0-.15-.75l-6.1-3.52a1.9,1.9,0,0,0-1.7.08l-2.1,1.21c-.46.27-.53.66-.2.92"/><path class="cls-2" d="M60.41,96.83s0,0,.07.07l1.82,1a1.86,1.86,0,0,0,1.7-.07l2.1-1.21a1.11,1.11,0,0,0,.28-.23"/><path class="cls-2" d="M66.38,96.43a.47.47,0,0,0-.15-.76l-1.83-1a1.9,1.9,0,0,0-1.7.08l-2.1,1.21c-.46.27-.52.66-.19.92"/><path class="cls-2" d="M64.73,99.31a.23.23,0,0,0,.07.07l1.82,1.05a1.9,1.9,0,0,0,1.7-.07l2.1-1.22a.91.91,0,0,0,.28-.22"/><path class="cls-2" d="M70.7,98.92a.46.46,0,0,0-.16-.76l-1.82-1a1.9,1.9,0,0,0-1.7.07l-2.1,1.22c-.46.27-.52.66-.19.91"/><path class="cls-2" d="M69.05,101.8s0,0,.07.07l1.82,1a1.9,1.9,0,0,0,1.7-.07l2.1-1.22a1.09,1.09,0,0,0,.28-.22"/><path class="cls-2" d="M75,101.41a.46.46,0,0,0-.16-.76L73,99.6a1.9,1.9,0,0,0-1.7.07l-2.1,1.22c-.46.27-.53.65-.19.91"/><path class="cls-2" d="M73.41,104.31a.46.46,0,0,0,.07.07l1.82,1.05a1.9,1.9,0,0,0,1.7-.07l2.11-1.22a1,1,0,0,0,.27-.22"/><path class="cls-2" d="M79.38,103.92a.47.47,0,0,0-.15-.76l-1.83-1a1.87,1.87,0,0,0-1.7.08l-2.1,1.21c-.46.27-.52.66-.19.91"/><path class="cls-2" d="M83.7,106.41a.47.47,0,0,0-.15-.76l-1.83-1.05a1.9,1.9,0,0,0-1.7.07l-2.1,1.22c-.46.27-.52.66-.19.91"/><path class="cls-2" d="M77.73,106.8s0,0,.07.07l1.82,1a1.9,1.9,0,0,0,1.7-.07l2.11-1.22a1.23,1.23,0,0,0,.27-.22"/><path class="cls-2" d="M88.06,108.92a.47.47,0,0,0-.15-.76l-1.82-1a1.9,1.9,0,0,0-1.7.08l-2.1,1.21c-.47.27-.53.66-.2.92"/><path class="cls-2" d="M82.09,109.32l.07.06L84,110.43a1.9,1.9,0,0,0,1.7-.07l2.1-1.21a1.05,1.05,0,0,0,.27-.23"/><path class="cls-2" d="M92.38,111.41a.47.47,0,0,0-.15-.76l-1.82-1.05a1.9,1.9,0,0,0-1.7.07l-2.11,1.22c-.46.27-.52.66-.19.91"/><path class="cls-2" d="M86.41,111.8s0,0,.07.07l1.83,1a1.9,1.9,0,0,0,1.7-.07l2.1-1.22a1,1,0,0,0,.27-.22"/><path class="cls-2" d="M90.73,114.29s0,0,.07.07l1.82,1a1.9,1.9,0,0,0,1.7-.07l2.11-1.22a1.23,1.23,0,0,0,.27-.22"/><path class="cls-2" d="M96.7,113.9a.46.46,0,0,0-.15-.76l-1.82-1a1.92,1.92,0,0,0-1.71.07l-2.1,1.22c-.46.27-.52.65-.19.91"/><path class="cls-2" d="M95.09,116.8a.27.27,0,0,0,.08.07l1.82,1a1.9,1.9,0,0,0,1.7-.07l2.1-1.22a.86.86,0,0,0,.27-.22"/><path class="cls-2" d="M101.06,116.41a.46.46,0,0,0-.15-.76l-1.82-1.05a1.9,1.9,0,0,0-1.7.07l-2.1,1.22c-.47.27-.53.66-.2.91"/><path class="cls-2" d="M99.41,119.29s0,0,.07.07l1.83,1a1.9,1.9,0,0,0,1.7-.07l2.1-1.22a1,1,0,0,0,.27-.22"/><path class="cls-2" d="M105.38,118.9a.46.46,0,0,0-.15-.76l-1.82-1a1.9,1.9,0,0,0-1.7.07l-2.1,1.22c-.47.27-.53.65-.2.91"/><path class="cls-2" d="M109.7,121.38a.46.46,0,0,0-.15-.75l-1.82-1a1.9,1.9,0,0,0-1.7.07l-2.11,1.22c-.46.26-.52.65-.19.91"/><path class="cls-2" d="M103.73,121.78s0,0,.07.07l1.83,1.05a1.87,1.87,0,0,0,1.7-.08l2.1-1.21a1.25,1.25,0,0,0,.27-.23"/><path class="cls-2" d="M114.06,123.9a.46.46,0,0,0-.15-.76l-1.82-1a1.9,1.9,0,0,0-1.7.07l-7.15,4.14c-.46.27-.52.65-.19.91"/><path class="cls-2" d="M103.05,127.21s0,.05.07.07l1.83,1.05a1.9,1.9,0,0,0,1.7-.07l7.14-4.14a1,1,0,0,0,.27-.22"/><path class="cls-2" d="M46.68,94.74a.27.27,0,0,0,.08.07l1.82,1a1.9,1.9,0,0,0,1.7-.07l2.1-1.22a.86.86,0,0,0,.27-.22"/><path class="cls-2" d="M52.65,94.35a.46.46,0,0,0-.15-.76l-1.82-1a1.87,1.87,0,0,0-1.7.08l-2.1,1.21c-.47.27-.53.66-.2.91"/><path class="cls-2" d="M51,97.23s0,0,.07.07l1.83,1a1.9,1.9,0,0,0,1.7-.07l2.1-1.22a1,1,0,0,0,.27-.22"/><path class="cls-2" d="M57,96.84a.47.47,0,0,0-.15-.76L55,95a1.9,1.9,0,0,0-1.7.07l-2.1,1.22c-.47.27-.53.66-.2.91"/><path class="cls-2" d="M55.36,99.75a.55.55,0,0,0,.08.06l1.82,1a1.9,1.9,0,0,0,1.7-.07l2.1-1.21a.9.9,0,0,0,.27-.23"/><path class="cls-2" d="M61.33,99.35a.46.46,0,0,0-.15-.76l-1.82-1a1.87,1.87,0,0,0-1.7.08l-2.1,1.21c-.46.27-.53.66-.2.92"/><path class="cls-2" d="M65.65,101.84a.46.46,0,0,0-.15-.76l-1.82-1a1.9,1.9,0,0,0-1.7.07l-2.1,1.22c-.47.27-.53.66-.2.91"/><path class="cls-2" d="M59.68,102.23s0,0,.08.07l1.82,1a1.9,1.9,0,0,0,1.7-.07l2.1-1.22a1,1,0,0,0,.27-.22"/><path class="cls-2" d="M83,111.84a.47.47,0,0,0-.15-.76L68,102.52a1.9,1.9,0,0,0-1.7.07l-2.1,1.22c-.47.27-.53.65-.2.91"/><path class="cls-2" d="M64,104.72s0,0,.08.07l14.86,8.56a1.9,1.9,0,0,0,1.7-.07l2.1-1.22a.91.91,0,0,0,.28-.22"/><path class="cls-2" d="M87.34,114.33a.46.46,0,0,0-.16-.76l-1.82-1a1.9,1.9,0,0,0-1.7.07l-2.1,1.22c-.46.27-.53.66-.19.91"/><path class="cls-2" d="M81.37,114.72l.07.07,1.82,1a1.9,1.9,0,0,0,1.7-.07l2.1-1.22a1.09,1.09,0,0,0,.28-.22"/><path class="cls-2" d="M91.65,116.82a.46.46,0,0,0-.15-.76l-1.82-1a1.9,1.9,0,0,0-1.7.07l-2.1,1.22c-.46.26-.53.65-.2.91"/><path class="cls-2" d="M85.68,117.21s0,.05.08.07l1.82,1a1.9,1.9,0,0,0,1.7-.07l2.1-1.22a1.06,1.06,0,0,0,.27-.22"/><path class="cls-2" d="M90.05,119.72s0,0,.07.07l1.82,1a1.9,1.9,0,0,0,1.7-.07l2.11-1.22a1.23,1.23,0,0,0,.27-.22"/><path class="cls-2" d="M96,119.33a.47.47,0,0,0-.15-.76l-1.83-1a1.9,1.9,0,0,0-1.7.07l-2.1,1.22c-.46.27-.52.66-.19.91"/><path class="cls-2" d="M100.34,121.82a.46.46,0,0,0-.15-.76l-1.83-1a1.9,1.9,0,0,0-1.7.07l-2.1,1.22c-.46.27-.52.65-.19.91"/><path class="cls-2" d="M94.37,122.21s0,.05.07.07l1.82,1a1.9,1.9,0,0,0,1.7-.07l2.1-1.22a1.09,1.09,0,0,0,.28-.22"/><path class="cls-2" d="M98.69,124.7a.46.46,0,0,0,.07.07l1.82,1a1.9,1.9,0,0,0,1.7-.08l2.1-1.21a1.11,1.11,0,0,0,.28-.23"/><path class="cls-2" d="M104.66,124.3a.45.45,0,0,0-.16-.75l-1.82-1a1.9,1.9,0,0,0-1.7.07l-2.1,1.21c-.46.27-.53.66-.19.92"/></g></svg>